<mxfile host="app.diagrams.net" modified="2023-07-12T13:20:19.582Z" agent="Mozilla/5.0 (Windows NT 10.0; Win64; x64) AppleWebKit/537.36 (KHTML, like Gecko) Chrome/114.0.0.0 Safari/537.36" etag="mm59lSzdVXRKwPTC98Mu" version="21.6.1" type="device" pages="6">
  <diagram name="use-case" id="3w-KoGpzt1A40fn91vl0">
    <mxGraphModel dx="2117" dy="549" grid="1" gridSize="10" guides="1" tooltips="1" connect="1" arrows="1" fold="1" page="1" pageScale="1" pageWidth="827" pageHeight="1169" math="0" shadow="0">
      <root>
        <mxCell id="0" />
        <mxCell id="1" parent="0" />
        <mxCell id="yIv1iFstYn2c42nZMw9h-29" value="" style="rounded=0;whiteSpace=wrap;html=1;" parent="1" vertex="1">
          <mxGeometry x="110" y="220" width="870" height="440" as="geometry" />
        </mxCell>
        <mxCell id="yIv1iFstYn2c42nZMw9h-16" value="ROLE_USER/ROLE_ADMIN" style="shape=umlActor;verticalLabelPosition=bottom;verticalAlign=top;html=1;outlineConnect=0;" parent="1" vertex="1">
          <mxGeometry x="-10" y="400" width="50" height="80" as="geometry" />
        </mxCell>
        <mxCell id="yIv1iFstYn2c42nZMw9h-17" value="View personal information" style="ellipse;whiteSpace=wrap;html=1;" parent="1" vertex="1">
          <mxGeometry x="420" y="400" width="120" height="80" as="geometry" />
        </mxCell>
        <mxCell id="yIv1iFstYn2c42nZMw9h-18" value="update personal information" style="ellipse;whiteSpace=wrap;html=1;" parent="1" vertex="1">
          <mxGeometry x="200" y="340" width="120" height="80" as="geometry" />
        </mxCell>
        <mxCell id="yIv1iFstYn2c42nZMw9h-19" value="&amp;lt;&amp;lt;include&amp;gt;&amp;gt;" style="html=1;verticalAlign=bottom;labelBackgroundColor=none;endArrow=open;endFill=0;dashed=1;rounded=0;exitX=1;exitY=0.5;exitDx=0;exitDy=0;entryX=0;entryY=0;entryDx=0;entryDy=0;" parent="1" source="yIv1iFstYn2c42nZMw9h-18" target="yIv1iFstYn2c42nZMw9h-17" edge="1">
          <mxGeometry width="160" relative="1" as="geometry">
            <mxPoint x="330" y="180" as="sourcePoint" />
            <mxPoint x="520" y="180" as="targetPoint" />
          </mxGeometry>
        </mxCell>
        <mxCell id="yIv1iFstYn2c42nZMw9h-20" value="" style="endArrow=none;html=1;rounded=0;entryX=0;entryY=0.5;entryDx=0;entryDy=0;exitX=0.5;exitY=0.5;exitDx=0;exitDy=0;exitPerimeter=0;" parent="1" source="yIv1iFstYn2c42nZMw9h-16" target="yIv1iFstYn2c42nZMw9h-18" edge="1">
          <mxGeometry width="50" height="50" relative="1" as="geometry">
            <mxPoint x="390" y="190" as="sourcePoint" />
            <mxPoint x="440" y="140" as="targetPoint" />
          </mxGeometry>
        </mxCell>
        <mxCell id="yIv1iFstYn2c42nZMw9h-21" value="Change Password" style="ellipse;whiteSpace=wrap;html=1;" parent="1" vertex="1">
          <mxGeometry x="200" y="470" width="120" height="80" as="geometry" />
        </mxCell>
        <mxCell id="yIv1iFstYn2c42nZMw9h-22" value="&amp;lt;&amp;lt;include&amp;gt;&amp;gt;" style="html=1;verticalAlign=bottom;labelBackgroundColor=none;endArrow=open;endFill=0;dashed=1;rounded=0;exitX=1;exitY=0.5;exitDx=0;exitDy=0;entryX=0;entryY=1;entryDx=0;entryDy=0;" parent="1" source="yIv1iFstYn2c42nZMw9h-21" target="yIv1iFstYn2c42nZMw9h-17" edge="1">
          <mxGeometry width="160" relative="1" as="geometry">
            <mxPoint x="320" y="200" as="sourcePoint" />
            <mxPoint x="500" y="310" as="targetPoint" />
          </mxGeometry>
        </mxCell>
        <mxCell id="yIv1iFstYn2c42nZMw9h-23" value="" style="endArrow=none;html=1;rounded=0;entryX=0;entryY=0.5;entryDx=0;entryDy=0;exitX=0.5;exitY=0.5;exitDx=0;exitDy=0;exitPerimeter=0;" parent="1" source="yIv1iFstYn2c42nZMw9h-16" target="yIv1iFstYn2c42nZMw9h-21" edge="1">
          <mxGeometry width="50" height="50" relative="1" as="geometry">
            <mxPoint x="65" y="200" as="sourcePoint" />
            <mxPoint x="200" y="200" as="targetPoint" />
          </mxGeometry>
        </mxCell>
        <mxCell id="yIv1iFstYn2c42nZMw9h-26" value="Login" style="ellipse;whiteSpace=wrap;html=1;" parent="1" vertex="1">
          <mxGeometry x="630" y="400" width="120" height="80" as="geometry" />
        </mxCell>
        <mxCell id="yIv1iFstYn2c42nZMw9h-28" value="&amp;lt;&amp;lt;include&amp;gt;&amp;gt;" style="html=1;verticalAlign=bottom;labelBackgroundColor=none;endArrow=open;endFill=0;dashed=1;rounded=0;exitX=1;exitY=0.5;exitDx=0;exitDy=0;entryX=0;entryY=0.5;entryDx=0;entryDy=0;" parent="1" source="yIv1iFstYn2c42nZMw9h-17" target="yIv1iFstYn2c42nZMw9h-26" edge="1">
          <mxGeometry width="160" relative="1" as="geometry">
            <mxPoint x="550" y="640" as="sourcePoint" />
            <mxPoint x="530" y="450" as="targetPoint" />
          </mxGeometry>
        </mxCell>
        <mxCell id="jpMpXVawxbYpQGbN2lSv-1" value="Login by Account" style="ellipse;whiteSpace=wrap;html=1;" parent="1" vertex="1">
          <mxGeometry x="820" y="400" width="120" height="80" as="geometry" />
        </mxCell>
        <mxCell id="jpMpXVawxbYpQGbN2lSv-2" value="" style="endArrow=block;html=1;rounded=0;entryX=1;entryY=0.5;entryDx=0;entryDy=0;exitX=0;exitY=0.5;exitDx=0;exitDy=0;endFill=0;" parent="1" source="jpMpXVawxbYpQGbN2lSv-1" target="yIv1iFstYn2c42nZMw9h-26" edge="1">
          <mxGeometry width="50" height="50" relative="1" as="geometry">
            <mxPoint x="490" y="460" as="sourcePoint" />
            <mxPoint x="540" y="410" as="targetPoint" />
          </mxGeometry>
        </mxCell>
        <mxCell id="jpMpXVawxbYpQGbN2lSv-12" value="" style="verticalLabelPosition=bottom;verticalAlign=top;html=1;shape=card;whiteSpace=wrap;size=20;arcSize=12;fillStyle=auto;direction=west;" parent="1" vertex="1">
          <mxGeometry x="110" y="220" width="240" height="80" as="geometry" />
        </mxCell>
        <mxCell id="jpMpXVawxbYpQGbN2lSv-14" value="&lt;div style=&quot;font-size: 16px;&quot;&gt;&lt;span style=&quot;background-color: initial;&quot;&gt;&lt;font style=&quot;font-size: 16px;&quot;&gt;Update personal information&lt;/font&gt;&lt;/span&gt;&lt;/div&gt;&lt;div style=&quot;font-size: 16px;&quot;&gt;&lt;span style=&quot;background-color: initial;&quot;&gt;&lt;font style=&quot;font-size: 16px;&quot;&gt;and&lt;/font&gt;&lt;/span&gt;&lt;/div&gt;&lt;div style=&quot;font-size: 16px;&quot;&gt;&lt;span style=&quot;background-color: initial;&quot;&gt;&lt;font style=&quot;font-size: 16px;&quot;&gt;Change Password&lt;/font&gt;&lt;/span&gt;&lt;/div&gt;" style="text;html=1;strokeColor=none;fillColor=none;align=center;verticalAlign=middle;whiteSpace=wrap;rounded=0;" parent="1" vertex="1">
          <mxGeometry x="110" y="245" width="250" height="30" as="geometry" />
        </mxCell>
      </root>
    </mxGraphModel>
  </diagram>
  <diagram id="HJTZiXKHJqlUnlPEqNGG" name="class-diagram-update-emloyee">
    <mxGraphModel dx="3156" dy="583" grid="1" gridSize="10" guides="1" tooltips="1" connect="1" arrows="1" fold="1" page="1" pageScale="1" pageWidth="827" pageHeight="1169" math="0" shadow="0">
      <root>
        <mxCell id="0" />
        <mxCell id="1" parent="0" />
        <mxCell id="E4DUo6NSZP3lWqpYY2H6-1" value="" style="rounded=0;whiteSpace=wrap;html=1;" parent="1" vertex="1">
          <mxGeometry x="-910" y="10" width="1700" height="900" as="geometry" />
        </mxCell>
        <mxCell id="zgxSZkuc60uicoKkog0m-1" value="EmployeeControler" style="swimlane;fontStyle=1;align=center;verticalAlign=top;childLayout=stackLayout;horizontal=1;startSize=26;horizontalStack=0;resizeParent=1;resizeParentMax=0;resizeLast=0;collapsible=1;marginBottom=0;whiteSpace=wrap;html=1;" parent="1" vertex="1">
          <mxGeometry x="-240" y="92" width="290" height="138" as="geometry">
            <mxRectangle x="400" y="300" width="100" height="30" as="alternateBounds" />
          </mxGeometry>
        </mxCell>
        <mxCell id="zgxSZkuc60uicoKkog0m-2" value="&lt;font style=&quot;font-size: 10px;&quot;&gt;- employeeService: CustomerService&lt;/font&gt;" style="text;strokeColor=none;fillColor=none;align=left;verticalAlign=top;spacingLeft=4;spacingRight=4;overflow=hidden;rotatable=0;points=[[0,0.5],[1,0.5]];portConstraint=eastwest;whiteSpace=wrap;html=1;" parent="zgxSZkuc60uicoKkog0m-1" vertex="1">
          <mxGeometry y="26" width="290" height="26" as="geometry" />
        </mxCell>
        <mxCell id="zgxSZkuc60uicoKkog0m-49" value="&lt;font style=&quot;font-size: 10px;&quot;&gt;- positionService: PositionService&lt;/font&gt;" style="text;strokeColor=none;fillColor=none;align=left;verticalAlign=top;spacingLeft=4;spacingRight=4;overflow=hidden;rotatable=0;points=[[0,0.5],[1,0.5]];portConstraint=eastwest;whiteSpace=wrap;html=1;" parent="zgxSZkuc60uicoKkog0m-1" vertex="1">
          <mxGeometry y="52" width="290" height="26" as="geometry" />
        </mxCell>
        <mxCell id="zgxSZkuc60uicoKkog0m-3" value="" style="line;strokeWidth=1;fillColor=none;align=left;verticalAlign=middle;spacingTop=-1;spacingLeft=3;spacingRight=3;rotatable=0;labelPosition=right;points=[];portConstraint=eastwest;strokeColor=inherit;" parent="zgxSZkuc60uicoKkog0m-1" vertex="1">
          <mxGeometry y="78" width="290" height="8" as="geometry" />
        </mxCell>
        <mxCell id="zgxSZkuc60uicoKkog0m-4" value="&lt;font style=&quot;font-size: 10px;&quot;&gt;+ findByEmployeeId(id: Long) :&amp;nbsp; employee | Null&lt;/font&gt;" style="text;strokeColor=none;fillColor=none;align=left;verticalAlign=top;spacingLeft=4;spacingRight=4;overflow=hidden;rotatable=0;points=[[0,0.5],[1,0.5]];portConstraint=eastwest;whiteSpace=wrap;html=1;" parent="zgxSZkuc60uicoKkog0m-1" vertex="1">
          <mxGeometry y="86" width="290" height="26" as="geometry" />
        </mxCell>
        <mxCell id="zgxSZkuc60uicoKkog0m-5" value="&lt;font style=&quot;font-size: 10px;&quot;&gt;+ editEmployee(id: Long,employee&amp;nbsp;: Employee&amp;nbsp;):&amp;nbsp;&lt;/font&gt;Employee&amp;nbsp;" style="text;strokeColor=none;fillColor=none;align=left;verticalAlign=top;spacingLeft=4;spacingRight=4;overflow=hidden;rotatable=0;points=[[0,0.5],[1,0.5]];portConstraint=eastwest;whiteSpace=wrap;html=1;" parent="zgxSZkuc60uicoKkog0m-1" vertex="1">
          <mxGeometry y="112" width="290" height="26" as="geometry" />
        </mxCell>
        <mxCell id="zgxSZkuc60uicoKkog0m-6" value="Employee" style="swimlane;fontStyle=1;align=center;verticalAlign=top;childLayout=stackLayout;horizontal=1;startSize=26;horizontalStack=0;resizeParent=1;resizeParentMax=0;resizeLast=0;collapsible=1;marginBottom=0;whiteSpace=wrap;html=1;" parent="1" vertex="1">
          <mxGeometry x="-290" y="346" width="180" height="294" as="geometry">
            <mxRectangle x="400" y="300" width="100" height="30" as="alternateBounds" />
          </mxGeometry>
        </mxCell>
        <mxCell id="zgxSZkuc60uicoKkog0m-7" value="&lt;font style=&quot;font-size: 10px;&quot;&gt;- id: long&lt;/font&gt;" style="text;strokeColor=none;fillColor=none;align=left;verticalAlign=top;spacingLeft=4;spacingRight=4;overflow=hidden;rotatable=0;points=[[0,0.5],[1,0.5]];portConstraint=eastwest;whiteSpace=wrap;html=1;" parent="zgxSZkuc60uicoKkog0m-6" vertex="1">
          <mxGeometry y="26" width="180" height="26" as="geometry" />
        </mxCell>
        <mxCell id="zgxSZkuc60uicoKkog0m-8" value="&lt;font style=&quot;font-size: 10px;&quot;&gt;- name: string&lt;/font&gt;" style="text;strokeColor=none;fillColor=none;align=left;verticalAlign=top;spacingLeft=4;spacingRight=4;overflow=hidden;rotatable=0;points=[[0,0.5],[1,0.5]];portConstraint=eastwest;whiteSpace=wrap;html=1;" parent="zgxSZkuc60uicoKkog0m-6" vertex="1">
          <mxGeometry y="52" width="180" height="26" as="geometry" />
        </mxCell>
        <mxCell id="zgxSZkuc60uicoKkog0m-10" value="&lt;font style=&quot;font-size: 10px;&quot;&gt;- gender: boolean&lt;/font&gt;" style="text;strokeColor=none;fillColor=none;align=left;verticalAlign=top;spacingLeft=4;spacingRight=4;overflow=hidden;rotatable=0;points=[[0,0.5],[1,0.5]];portConstraint=eastwest;whiteSpace=wrap;html=1;" parent="zgxSZkuc60uicoKkog0m-6" vertex="1">
          <mxGeometry y="78" width="180" height="26" as="geometry" />
        </mxCell>
        <mxCell id="zgxSZkuc60uicoKkog0m-11" value="&lt;font style=&quot;font-size: 10px;&quot;&gt;- dateOfBirth: boolean&lt;/font&gt;" style="text;strokeColor=none;fillColor=none;align=left;verticalAlign=top;spacingLeft=4;spacingRight=4;overflow=hidden;rotatable=0;points=[[0,0.5],[1,0.5]];portConstraint=eastwest;whiteSpace=wrap;html=1;" parent="zgxSZkuc60uicoKkog0m-6" vertex="1">
          <mxGeometry y="104" width="180" height="26" as="geometry" />
        </mxCell>
        <mxCell id="zgxSZkuc60uicoKkog0m-13" value="&lt;font style=&quot;font-size: 10px;&quot;&gt;- employeeAddress: string&lt;/font&gt;" style="text;strokeColor=none;fillColor=none;align=left;verticalAlign=top;spacingLeft=4;spacingRight=4;overflow=hidden;rotatable=0;points=[[0,0.5],[1,0.5]];portConstraint=eastwest;whiteSpace=wrap;html=1;" parent="zgxSZkuc60uicoKkog0m-6" vertex="1">
          <mxGeometry y="130" width="180" height="26" as="geometry" />
        </mxCell>
        <mxCell id="zgxSZkuc60uicoKkog0m-15" value="&lt;font style=&quot;font-size: 10px;&quot;&gt;- employeeImg: string&lt;/font&gt;" style="text;strokeColor=none;fillColor=none;align=left;verticalAlign=top;spacingLeft=4;spacingRight=4;overflow=hidden;rotatable=0;points=[[0,0.5],[1,0.5]];portConstraint=eastwest;whiteSpace=wrap;html=1;" parent="zgxSZkuc60uicoKkog0m-6" vertex="1">
          <mxGeometry y="156" width="180" height="26" as="geometry" />
        </mxCell>
        <mxCell id="zgxSZkuc60uicoKkog0m-9" value="&lt;font style=&quot;font-size: 10px;&quot;&gt;- salary: interger&lt;/font&gt;" style="text;strokeColor=none;fillColor=none;align=left;verticalAlign=top;spacingLeft=4;spacingRight=4;overflow=hidden;rotatable=0;points=[[0,0.5],[1,0.5]];portConstraint=eastwest;whiteSpace=wrap;html=1;" parent="zgxSZkuc60uicoKkog0m-6" vertex="1">
          <mxGeometry y="182" width="180" height="26" as="geometry" />
        </mxCell>
        <mxCell id="OudXLnlBw6MVoYG_suVl-3" value="&lt;font style=&quot;font-size: 10px;&quot;&gt;- isEnable: boolean&lt;/font&gt;" style="text;strokeColor=none;fillColor=none;align=left;verticalAlign=top;spacingLeft=4;spacingRight=4;overflow=hidden;rotatable=0;points=[[0,0.5],[1,0.5]];portConstraint=eastwest;whiteSpace=wrap;html=1;" parent="zgxSZkuc60uicoKkog0m-6" vertex="1">
          <mxGeometry y="208" width="180" height="26" as="geometry" />
        </mxCell>
        <mxCell id="OudXLnlBw6MVoYG_suVl-2" value="&lt;span style=&quot;font-size: 10px;&quot;&gt;- positionId: interger&lt;/span&gt;" style="text;strokeColor=none;fillColor=none;align=left;verticalAlign=top;spacingLeft=4;spacingRight=4;overflow=hidden;rotatable=0;points=[[0,0.5],[1,0.5]];portConstraint=eastwest;whiteSpace=wrap;html=1;" parent="zgxSZkuc60uicoKkog0m-6" vertex="1">
          <mxGeometry y="234" width="180" height="26" as="geometry" />
        </mxCell>
        <mxCell id="zgxSZkuc60uicoKkog0m-16" value="" style="line;strokeWidth=1;fillColor=none;align=left;verticalAlign=middle;spacingTop=-1;spacingLeft=3;spacingRight=3;rotatable=0;labelPosition=right;points=[];portConstraint=eastwest;strokeColor=inherit;" parent="zgxSZkuc60uicoKkog0m-6" vertex="1">
          <mxGeometry y="260" width="180" height="8" as="geometry" />
        </mxCell>
        <mxCell id="zgxSZkuc60uicoKkog0m-17" value="&lt;font style=&quot;font-size: 10px;&quot;&gt;+ getters/setters();&lt;/font&gt;" style="text;strokeColor=none;fillColor=none;align=left;verticalAlign=top;spacingLeft=4;spacingRight=4;overflow=hidden;rotatable=0;points=[[0,0.5],[1,0.5]];portConstraint=eastwest;whiteSpace=wrap;html=1;" parent="zgxSZkuc60uicoKkog0m-6" vertex="1">
          <mxGeometry y="268" width="180" height="26" as="geometry" />
        </mxCell>
        <mxCell id="zgxSZkuc60uicoKkog0m-18" value="Position" style="swimlane;fontStyle=1;align=center;verticalAlign=top;childLayout=stackLayout;horizontal=1;startSize=26;horizontalStack=0;resizeParent=1;resizeParentMax=0;resizeLast=0;collapsible=1;marginBottom=0;whiteSpace=wrap;html=1;" parent="1" vertex="1">
          <mxGeometry y="452" width="180" height="112" as="geometry">
            <mxRectangle x="400" y="300" width="100" height="30" as="alternateBounds" />
          </mxGeometry>
        </mxCell>
        <mxCell id="zgxSZkuc60uicoKkog0m-19" value="&lt;font style=&quot;font-size: 10px;&quot;&gt;- id: long&lt;/font&gt;" style="text;strokeColor=none;fillColor=none;align=left;verticalAlign=top;spacingLeft=4;spacingRight=4;overflow=hidden;rotatable=0;points=[[0,0.5],[1,0.5]];portConstraint=eastwest;whiteSpace=wrap;html=1;" parent="zgxSZkuc60uicoKkog0m-18" vertex="1">
          <mxGeometry y="26" width="180" height="26" as="geometry" />
        </mxCell>
        <mxCell id="zgxSZkuc60uicoKkog0m-20" value="&lt;font style=&quot;font-size: 10px;&quot;&gt;- name: string&lt;/font&gt;" style="text;strokeColor=none;fillColor=none;align=left;verticalAlign=top;spacingLeft=4;spacingRight=4;overflow=hidden;rotatable=0;points=[[0,0.5],[1,0.5]];portConstraint=eastwest;whiteSpace=wrap;html=1;" parent="zgxSZkuc60uicoKkog0m-18" vertex="1">
          <mxGeometry y="52" width="180" height="26" as="geometry" />
        </mxCell>
        <mxCell id="zgxSZkuc60uicoKkog0m-21" value="" style="line;strokeWidth=1;fillColor=none;align=left;verticalAlign=middle;spacingTop=-1;spacingLeft=3;spacingRight=3;rotatable=0;labelPosition=right;points=[];portConstraint=eastwest;strokeColor=inherit;" parent="zgxSZkuc60uicoKkog0m-18" vertex="1">
          <mxGeometry y="78" width="180" height="8" as="geometry" />
        </mxCell>
        <mxCell id="zgxSZkuc60uicoKkog0m-22" value="&lt;font style=&quot;font-size: 10px;&quot;&gt;+ getters/setters();&lt;/font&gt;" style="text;strokeColor=none;fillColor=none;align=left;verticalAlign=top;spacingLeft=4;spacingRight=4;overflow=hidden;rotatable=0;points=[[0,0.5],[1,0.5]];portConstraint=eastwest;whiteSpace=wrap;html=1;" parent="zgxSZkuc60uicoKkog0m-18" vertex="1">
          <mxGeometry y="86" width="180" height="26" as="geometry" />
        </mxCell>
        <mxCell id="zgxSZkuc60uicoKkog0m-24" value="&lt;span style=&quot;font-weight: normal;&quot;&gt;&lt;i&gt;&amp;lt;&amp;lt;Interface&amp;gt;&amp;gt;&lt;/i&gt;&lt;/span&gt;&lt;br&gt;EmployeeService" style="swimlane;fontStyle=1;align=center;verticalAlign=top;childLayout=stackLayout;horizontal=1;startSize=40;horizontalStack=0;resizeParent=1;resizeParentMax=0;resizeLast=0;collapsible=1;marginBottom=0;whiteSpace=wrap;html=1;" parent="1" vertex="1">
          <mxGeometry x="-780" y="280" width="250" height="100" as="geometry">
            <mxRectangle x="400" y="300" width="100" height="30" as="alternateBounds" />
          </mxGeometry>
        </mxCell>
        <mxCell id="zgxSZkuc60uicoKkog0m-25" value="" style="line;strokeWidth=1;fillColor=none;align=left;verticalAlign=middle;spacingTop=-1;spacingLeft=3;spacingRight=3;rotatable=0;labelPosition=right;points=[];portConstraint=eastwest;strokeColor=inherit;" parent="zgxSZkuc60uicoKkog0m-24" vertex="1">
          <mxGeometry y="40" width="250" height="8" as="geometry" />
        </mxCell>
        <mxCell id="OudXLnlBw6MVoYG_suVl-1" value="&lt;font style=&quot;font-size: 10px;&quot;&gt;+ findByEmployeeId(id: Long) :&amp;nbsp; Employee | Null&lt;/font&gt;" style="text;strokeColor=none;fillColor=none;align=left;verticalAlign=top;spacingLeft=4;spacingRight=4;overflow=hidden;rotatable=0;points=[[0,0.5],[1,0.5]];portConstraint=eastwest;whiteSpace=wrap;html=1;" parent="zgxSZkuc60uicoKkog0m-24" vertex="1">
          <mxGeometry y="48" width="250" height="26" as="geometry" />
        </mxCell>
        <mxCell id="zgxSZkuc60uicoKkog0m-27" value="&lt;font style=&quot;font-size: 10px;&quot;&gt;+ saveEmployee(employee: Employee): Employee&amp;nbsp;&lt;/font&gt;" style="text;strokeColor=none;fillColor=none;align=left;verticalAlign=top;spacingLeft=4;spacingRight=4;overflow=hidden;rotatable=0;points=[[0,0.5],[1,0.5]];portConstraint=eastwest;whiteSpace=wrap;html=1;" parent="zgxSZkuc60uicoKkog0m-24" vertex="1">
          <mxGeometry y="74" width="250" height="26" as="geometry" />
        </mxCell>
        <mxCell id="zgxSZkuc60uicoKkog0m-28" value="" style="endArrow=diamondThin;endFill=1;endSize=24;html=1;rounded=0;fontFamily=Helvetica;fontSize=12;fontColor=default;" parent="1" target="zgxSZkuc60uicoKkog0m-1" edge="1">
          <mxGeometry width="160" relative="1" as="geometry">
            <mxPoint x="-660" y="280" as="sourcePoint" />
            <mxPoint x="-650" y="210" as="targetPoint" />
          </mxGeometry>
        </mxCell>
        <mxCell id="zgxSZkuc60uicoKkog0m-29" value="owns" style="text;html=1;align=center;verticalAlign=middle;resizable=0;points=[];autosize=1;strokeColor=none;fillColor=none;" parent="1" vertex="1">
          <mxGeometry x="-560" y="212" width="50" height="30" as="geometry" />
        </mxCell>
        <mxCell id="zgxSZkuc60uicoKkog0m-30" value="EmployeeServiceImpl" style="swimlane;fontStyle=1;align=center;verticalAlign=top;childLayout=stackLayout;horizontal=1;startSize=30;horizontalStack=0;resizeParent=1;resizeParentMax=0;resizeLast=0;collapsible=1;marginBottom=0;whiteSpace=wrap;html=1;" parent="1" vertex="1">
          <mxGeometry x="-795" y="450" width="265" height="116" as="geometry">
            <mxRectangle x="400" y="300" width="100" height="30" as="alternateBounds" />
          </mxGeometry>
        </mxCell>
        <mxCell id="zgxSZkuc60uicoKkog0m-31" value="&lt;span style=&quot;font-size: 10px;&quot;&gt;- employeeRepository : EmployeeRepository&lt;/span&gt;" style="text;strokeColor=none;fillColor=none;align=left;verticalAlign=top;spacingLeft=4;spacingRight=4;overflow=hidden;rotatable=0;points=[[0,0.5],[1,0.5]];portConstraint=eastwest;whiteSpace=wrap;html=1;" parent="zgxSZkuc60uicoKkog0m-30" vertex="1">
          <mxGeometry y="30" width="265" height="26" as="geometry" />
        </mxCell>
        <mxCell id="zgxSZkuc60uicoKkog0m-32" value="" style="line;strokeWidth=1;fillColor=none;align=left;verticalAlign=middle;spacingTop=-1;spacingLeft=3;spacingRight=3;rotatable=0;labelPosition=right;points=[];portConstraint=eastwest;strokeColor=inherit;" parent="zgxSZkuc60uicoKkog0m-30" vertex="1">
          <mxGeometry y="56" width="265" height="8" as="geometry" />
        </mxCell>
        <mxCell id="zgxSZkuc60uicoKkog0m-33" value="&lt;font style=&quot;font-size: 10px;&quot;&gt;+ findByEmployeerId(id: Long) :&amp;nbsp; Employee | Null&lt;/font&gt;" style="text;strokeColor=none;fillColor=none;align=left;verticalAlign=top;spacingLeft=4;spacingRight=4;overflow=hidden;rotatable=0;points=[[0,0.5],[1,0.5]];portConstraint=eastwest;whiteSpace=wrap;html=1;" parent="zgxSZkuc60uicoKkog0m-30" vertex="1">
          <mxGeometry y="64" width="265" height="26" as="geometry" />
        </mxCell>
        <mxCell id="zgxSZkuc60uicoKkog0m-34" value="&lt;font style=&quot;font-size: 10px;&quot;&gt;+ saveEmployee(employee: Employee ):&amp;nbsp;&lt;/font&gt;Employee&amp;nbsp;" style="text;strokeColor=none;fillColor=none;align=left;verticalAlign=top;spacingLeft=4;spacingRight=4;overflow=hidden;rotatable=0;points=[[0,0.5],[1,0.5]];portConstraint=eastwest;whiteSpace=wrap;html=1;" parent="zgxSZkuc60uicoKkog0m-30" vertex="1">
          <mxGeometry y="90" width="265" height="26" as="geometry" />
        </mxCell>
        <mxCell id="zgxSZkuc60uicoKkog0m-35" value="" style="endArrow=block;dashed=1;endFill=0;endSize=12;html=1;rounded=0;fontFamily=Helvetica;fontSize=12;fontColor=default;" parent="1" source="zgxSZkuc60uicoKkog0m-30" target="zgxSZkuc60uicoKkog0m-24" edge="1">
          <mxGeometry width="160" relative="1" as="geometry">
            <mxPoint x="-620.5899999999999" y="447" as="sourcePoint" />
            <mxPoint x="-680" y="390" as="targetPoint" />
          </mxGeometry>
        </mxCell>
        <mxCell id="zgxSZkuc60uicoKkog0m-36" value="realizes" style="text;html=1;align=center;verticalAlign=middle;resizable=0;points=[];autosize=1;strokeColor=none;fillColor=none;" parent="1" vertex="1">
          <mxGeometry x="-660" y="410" width="60" height="30" as="geometry" />
        </mxCell>
        <mxCell id="zgxSZkuc60uicoKkog0m-37" value="&lt;span style=&quot;font-weight: normal;&quot;&gt;&lt;i&gt;&amp;lt;&amp;lt;Interface&amp;gt;&amp;gt;&lt;/i&gt;&lt;/span&gt;&lt;br&gt;EmployeeRepository&amp;lt;Employee, Long&amp;gt;" style="swimlane;fontStyle=1;align=center;verticalAlign=top;childLayout=stackLayout;horizontal=1;startSize=40;horizontalStack=0;resizeParent=1;resizeParentMax=0;resizeLast=0;collapsible=1;marginBottom=0;whiteSpace=wrap;html=1;" parent="1" vertex="1">
          <mxGeometry x="-740" y="660" width="240" height="70" as="geometry">
            <mxRectangle x="400" y="300" width="100" height="30" as="alternateBounds" />
          </mxGeometry>
        </mxCell>
        <mxCell id="zgxSZkuc60uicoKkog0m-38" value="" style="line;strokeWidth=1;fillColor=none;align=left;verticalAlign=middle;spacingTop=-1;spacingLeft=3;spacingRight=3;rotatable=0;labelPosition=right;points=[];portConstraint=eastwest;strokeColor=inherit;" parent="zgxSZkuc60uicoKkog0m-37" vertex="1">
          <mxGeometry y="40" width="240" height="30" as="geometry" />
        </mxCell>
        <mxCell id="zgxSZkuc60uicoKkog0m-39" value="" style="endArrow=diamondThin;endFill=1;endSize=24;html=1;rounded=0;fontFamily=Helvetica;fontSize=12;fontColor=default;exitX=0.5;exitY=0;exitDx=0;exitDy=0;" parent="1" source="zgxSZkuc60uicoKkog0m-37" target="zgxSZkuc60uicoKkog0m-30" edge="1">
          <mxGeometry width="160" relative="1" as="geometry">
            <mxPoint x="-610" y="290" as="sourcePoint" />
            <mxPoint x="-470" y="590" as="targetPoint" />
          </mxGeometry>
        </mxCell>
        <mxCell id="zgxSZkuc60uicoKkog0m-40" value="owns" style="text;html=1;align=center;verticalAlign=middle;resizable=0;points=[];autosize=1;strokeColor=none;fillColor=none;" parent="1" vertex="1">
          <mxGeometry x="-675" y="610" width="50" height="30" as="geometry" />
        </mxCell>
        <mxCell id="zgxSZkuc60uicoKkog0m-41" value="Uses" style="endArrow=open;endSize=12;dashed=1;html=1;rounded=0;fontFamily=Helvetica;fontSize=12;fontColor=default;" parent="1" source="zgxSZkuc60uicoKkog0m-1" target="zgxSZkuc60uicoKkog0m-6" edge="1">
          <mxGeometry width="160" relative="1" as="geometry">
            <mxPoint x="450" y="875" as="sourcePoint" />
            <mxPoint x="-330" y="560" as="targetPoint" />
          </mxGeometry>
        </mxCell>
        <mxCell id="zgxSZkuc60uicoKkog0m-42" value="Uses" style="endArrow=open;endSize=12;dashed=1;html=1;rounded=0;fontFamily=Helvetica;fontSize=12;fontColor=default;" parent="1" source="zgxSZkuc60uicoKkog0m-24" target="zgxSZkuc60uicoKkog0m-6" edge="1">
          <mxGeometry width="160" relative="1" as="geometry">
            <mxPoint x="-529" y="222" as="sourcePoint" />
            <mxPoint x="-280" y="393" as="targetPoint" />
          </mxGeometry>
        </mxCell>
        <mxCell id="zgxSZkuc60uicoKkog0m-43" value="Uses" style="endArrow=open;endSize=12;dashed=1;html=1;rounded=0;fontFamily=Helvetica;fontSize=12;fontColor=default;" parent="1" source="zgxSZkuc60uicoKkog0m-30" target="zgxSZkuc60uicoKkog0m-6" edge="1">
          <mxGeometry width="160" relative="1" as="geometry">
            <mxPoint x="-520" y="365" as="sourcePoint" />
            <mxPoint x="-280" y="430" as="targetPoint" />
          </mxGeometry>
        </mxCell>
        <mxCell id="zgxSZkuc60uicoKkog0m-44" value="Uses" style="endArrow=open;endSize=12;dashed=1;html=1;rounded=0;fontFamily=Helvetica;fontSize=12;fontColor=default;" parent="1" source="zgxSZkuc60uicoKkog0m-37" target="zgxSZkuc60uicoKkog0m-6" edge="1">
          <mxGeometry width="160" relative="1" as="geometry">
            <mxPoint x="-505" y="502" as="sourcePoint" />
            <mxPoint x="-280" y="469" as="targetPoint" />
          </mxGeometry>
        </mxCell>
        <mxCell id="zgxSZkuc60uicoKkog0m-45" value="&lt;span style=&quot;font-weight: normal;&quot;&gt;&lt;i&gt;&amp;lt;&amp;lt;Interface&amp;gt;&amp;gt;&lt;/i&gt;&lt;/span&gt;&lt;br&gt;JpaRepository" style="swimlane;fontStyle=1;align=center;verticalAlign=top;childLayout=stackLayout;horizontal=1;startSize=40;horizontalStack=0;resizeParent=1;resizeParentMax=0;resizeLast=0;collapsible=1;marginBottom=0;whiteSpace=wrap;html=1;" parent="1" vertex="1">
          <mxGeometry x="-200" y="710" width="240" height="70" as="geometry">
            <mxRectangle x="400" y="300" width="100" height="30" as="alternateBounds" />
          </mxGeometry>
        </mxCell>
        <mxCell id="zgxSZkuc60uicoKkog0m-46" value="" style="line;strokeWidth=1;fillColor=none;align=left;verticalAlign=middle;spacingTop=-1;spacingLeft=3;spacingRight=3;rotatable=0;labelPosition=right;points=[];portConstraint=eastwest;strokeColor=inherit;" parent="zgxSZkuc60uicoKkog0m-45" vertex="1">
          <mxGeometry y="40" width="240" height="30" as="geometry" />
        </mxCell>
        <mxCell id="zgxSZkuc60uicoKkog0m-47" value="is" style="endArrow=block;endSize=16;endFill=0;html=1;rounded=0;fontFamily=Helvetica;fontSize=12;fontColor=default;" parent="1" source="zgxSZkuc60uicoKkog0m-37" target="zgxSZkuc60uicoKkog0m-45" edge="1">
          <mxGeometry width="160" relative="1" as="geometry">
            <mxPoint x="-930" y="1050" as="sourcePoint" />
            <mxPoint x="790" y="1563" as="targetPoint" />
            <Array as="points" />
            <mxPoint as="offset" />
          </mxGeometry>
        </mxCell>
        <mxCell id="zgxSZkuc60uicoKkog0m-53" value="&lt;span style=&quot;font-weight: normal;&quot;&gt;&lt;i&gt;&amp;lt;&amp;lt;Interface&amp;gt;&amp;gt;&lt;/i&gt;&lt;/span&gt;&lt;br&gt;PositionService" style="swimlane;fontStyle=1;align=center;verticalAlign=top;childLayout=stackLayout;horizontal=1;startSize=40;horizontalStack=0;resizeParent=1;resizeParentMax=0;resizeLast=0;collapsible=1;marginBottom=0;whiteSpace=wrap;html=1;" parent="1" vertex="1">
          <mxGeometry x="340" y="310" width="357.5" height="100" as="geometry">
            <mxRectangle x="400" y="300" width="100" height="30" as="alternateBounds" />
          </mxGeometry>
        </mxCell>
        <mxCell id="zgxSZkuc60uicoKkog0m-54" value="" style="line;strokeWidth=1;fillColor=none;align=left;verticalAlign=middle;spacingTop=-1;spacingLeft=3;spacingRight=3;rotatable=0;labelPosition=right;points=[];portConstraint=eastwest;strokeColor=inherit;" parent="zgxSZkuc60uicoKkog0m-53" vertex="1">
          <mxGeometry y="40" width="357.5" height="8" as="geometry" />
        </mxCell>
        <mxCell id="H-_4C-xzt19Ix82iL8lY-1" value="&lt;font style=&quot;font-size: 10px;&quot;&gt;+ findByPositionId(id: Long) :&amp;nbsp; Position| Null&lt;/font&gt;" style="text;strokeColor=none;fillColor=none;align=left;verticalAlign=top;spacingLeft=4;spacingRight=4;overflow=hidden;rotatable=0;points=[[0,0.5],[1,0.5]];portConstraint=eastwest;whiteSpace=wrap;html=1;" parent="zgxSZkuc60uicoKkog0m-53" vertex="1">
          <mxGeometry y="48" width="357.5" height="26" as="geometry" />
        </mxCell>
        <mxCell id="zgxSZkuc60uicoKkog0m-56" value="&lt;font style=&quot;font-size: 10px;&quot;&gt;+ savePosition(position: Position): Position&lt;/font&gt;" style="text;strokeColor=none;fillColor=none;align=left;verticalAlign=top;spacingLeft=4;spacingRight=4;overflow=hidden;rotatable=0;points=[[0,0.5],[1,0.5]];portConstraint=eastwest;whiteSpace=wrap;html=1;" parent="zgxSZkuc60uicoKkog0m-53" vertex="1">
          <mxGeometry y="74" width="357.5" height="26" as="geometry" />
        </mxCell>
        <mxCell id="zgxSZkuc60uicoKkog0m-57" value="PositionServiceImpl" style="swimlane;fontStyle=1;align=center;verticalAlign=top;childLayout=stackLayout;horizontal=1;startSize=30;horizontalStack=0;resizeParent=1;resizeParentMax=0;resizeLast=0;collapsible=1;marginBottom=0;whiteSpace=wrap;html=1;" parent="1" vertex="1">
          <mxGeometry x="362.5" y="469" width="317.5" height="116" as="geometry">
            <mxRectangle x="400" y="300" width="100" height="30" as="alternateBounds" />
          </mxGeometry>
        </mxCell>
        <mxCell id="zgxSZkuc60uicoKkog0m-58" value="&lt;span style=&quot;font-size: 10px;&quot;&gt;- positionRepository : PositionRepository&lt;/span&gt;" style="text;strokeColor=none;fillColor=none;align=left;verticalAlign=top;spacingLeft=4;spacingRight=4;overflow=hidden;rotatable=0;points=[[0,0.5],[1,0.5]];portConstraint=eastwest;whiteSpace=wrap;html=1;" parent="zgxSZkuc60uicoKkog0m-57" vertex="1">
          <mxGeometry y="30" width="317.5" height="26" as="geometry" />
        </mxCell>
        <mxCell id="zgxSZkuc60uicoKkog0m-59" value="" style="line;strokeWidth=1;fillColor=none;align=left;verticalAlign=middle;spacingTop=-1;spacingLeft=3;spacingRight=3;rotatable=0;labelPosition=right;points=[];portConstraint=eastwest;strokeColor=inherit;" parent="zgxSZkuc60uicoKkog0m-57" vertex="1">
          <mxGeometry y="56" width="317.5" height="8" as="geometry" />
        </mxCell>
        <mxCell id="H-_4C-xzt19Ix82iL8lY-3" value="&lt;font style=&quot;font-size: 10px;&quot;&gt;+ findByPositionId(id: Long) :&amp;nbsp; Position| Null&lt;/font&gt;" style="text;strokeColor=none;fillColor=none;align=left;verticalAlign=top;spacingLeft=4;spacingRight=4;overflow=hidden;rotatable=0;points=[[0,0.5],[1,0.5]];portConstraint=eastwest;whiteSpace=wrap;html=1;" parent="zgxSZkuc60uicoKkog0m-57" vertex="1">
          <mxGeometry y="64" width="317.5" height="26" as="geometry" />
        </mxCell>
        <mxCell id="H-_4C-xzt19Ix82iL8lY-2" value="&lt;font style=&quot;font-size: 10px;&quot;&gt;+ savePosition(position: Position): Position&lt;/font&gt;" style="text;strokeColor=none;fillColor=none;align=left;verticalAlign=top;spacingLeft=4;spacingRight=4;overflow=hidden;rotatable=0;points=[[0,0.5],[1,0.5]];portConstraint=eastwest;whiteSpace=wrap;html=1;" parent="zgxSZkuc60uicoKkog0m-57" vertex="1">
          <mxGeometry y="90" width="317.5" height="26" as="geometry" />
        </mxCell>
        <mxCell id="zgxSZkuc60uicoKkog0m-62" value="&lt;span style=&quot;font-weight: normal;&quot;&gt;&lt;i&gt;&amp;lt;&amp;lt;Interface&amp;gt;&amp;gt;&lt;/i&gt;&lt;/span&gt;&lt;br&gt;PositionRepository&amp;lt;Position, Long&amp;gt;" style="swimlane;fontStyle=1;align=center;verticalAlign=top;childLayout=stackLayout;horizontal=1;startSize=40;horizontalStack=0;resizeParent=1;resizeParentMax=0;resizeLast=0;collapsible=1;marginBottom=0;whiteSpace=wrap;html=1;" parent="1" vertex="1">
          <mxGeometry x="340" y="690" width="290" height="70" as="geometry">
            <mxRectangle x="400" y="300" width="100" height="30" as="alternateBounds" />
          </mxGeometry>
        </mxCell>
        <mxCell id="zgxSZkuc60uicoKkog0m-63" value="" style="line;strokeWidth=1;fillColor=none;align=left;verticalAlign=middle;spacingTop=-1;spacingLeft=3;spacingRight=3;rotatable=0;labelPosition=right;points=[];portConstraint=eastwest;strokeColor=inherit;" parent="zgxSZkuc60uicoKkog0m-62" vertex="1">
          <mxGeometry y="40" width="290" height="30" as="geometry" />
        </mxCell>
        <mxCell id="zgxSZkuc60uicoKkog0m-64" value="Uses" style="endArrow=open;endSize=12;dashed=1;html=1;rounded=0;fontFamily=Helvetica;fontSize=12;fontColor=default;" parent="1" source="zgxSZkuc60uicoKkog0m-1" target="zgxSZkuc60uicoKkog0m-18" edge="1">
          <mxGeometry width="160" relative="1" as="geometry">
            <mxPoint x="-529" y="222" as="sourcePoint" />
            <mxPoint x="-280" y="393" as="targetPoint" />
          </mxGeometry>
        </mxCell>
        <mxCell id="zgxSZkuc60uicoKkog0m-65" value="Uses" style="endArrow=open;endSize=12;dashed=1;html=1;rounded=0;fontFamily=Helvetica;fontSize=12;fontColor=default;" parent="1" source="zgxSZkuc60uicoKkog0m-53" target="zgxSZkuc60uicoKkog0m-18" edge="1">
          <mxGeometry width="160" relative="1" as="geometry">
            <mxPoint x="439" y="222" as="sourcePoint" />
            <mxPoint x="219" y="473" as="targetPoint" />
          </mxGeometry>
        </mxCell>
        <mxCell id="zgxSZkuc60uicoKkog0m-66" value="Uses" style="endArrow=open;endSize=12;dashed=1;html=1;rounded=0;fontFamily=Helvetica;fontSize=12;fontColor=default;" parent="1" source="zgxSZkuc60uicoKkog0m-57" target="zgxSZkuc60uicoKkog0m-18" edge="1">
          <mxGeometry width="160" relative="1" as="geometry">
            <mxPoint x="403" y="420" as="sourcePoint" />
            <mxPoint x="260" y="487" as="targetPoint" />
          </mxGeometry>
        </mxCell>
        <mxCell id="zgxSZkuc60uicoKkog0m-67" value="Uses" style="endArrow=open;endSize=12;dashed=1;html=1;rounded=0;fontFamily=Helvetica;fontSize=12;fontColor=default;" parent="1" source="zgxSZkuc60uicoKkog0m-62" target="zgxSZkuc60uicoKkog0m-18" edge="1">
          <mxGeometry width="160" relative="1" as="geometry">
            <mxPoint x="350" y="528" as="sourcePoint" />
            <mxPoint x="260" y="528" as="targetPoint" />
          </mxGeometry>
        </mxCell>
        <mxCell id="zgxSZkuc60uicoKkog0m-68" value="is" style="endArrow=block;endSize=16;endFill=0;html=1;rounded=0;fontFamily=Helvetica;fontSize=12;fontColor=default;entryX=1;entryY=0.25;entryDx=0;entryDy=0;" parent="1" source="zgxSZkuc60uicoKkog0m-62" target="zgxSZkuc60uicoKkog0m-45" edge="1">
          <mxGeometry width="160" relative="1" as="geometry">
            <mxPoint x="-490" y="724" as="sourcePoint" />
            <mxPoint x="-110" y="786" as="targetPoint" />
            <Array as="points" />
            <mxPoint as="offset" />
          </mxGeometry>
        </mxCell>
        <mxCell id="zgxSZkuc60uicoKkog0m-69" value="has" style="text;html=1;align=center;verticalAlign=middle;resizable=0;points=[];autosize=1;strokeColor=none;fillColor=none;" parent="1" vertex="1">
          <mxGeometry x="-70" y="478" width="40" height="30" as="geometry" />
        </mxCell>
        <mxCell id="zgxSZkuc60uicoKkog0m-71" value="" style="endArrow=diamondThin;endFill=1;endSize=24;html=1;rounded=0;fontFamily=Helvetica;fontSize=12;fontColor=default;" parent="1" source="zgxSZkuc60uicoKkog0m-62" target="zgxSZkuc60uicoKkog0m-57" edge="1">
          <mxGeometry width="160" relative="1" as="geometry">
            <mxPoint x="-650" y="290" as="sourcePoint" />
            <mxPoint x="-655" y="222" as="targetPoint" />
          </mxGeometry>
        </mxCell>
        <mxCell id="zgxSZkuc60uicoKkog0m-72" value="owns" style="text;html=1;align=center;verticalAlign=middle;resizable=0;points=[];autosize=1;strokeColor=none;fillColor=none;" parent="1" vertex="1">
          <mxGeometry x="230" y="220" width="50" height="30" as="geometry" />
        </mxCell>
        <mxCell id="zgxSZkuc60uicoKkog0m-73" value="owns" style="text;html=1;align=center;verticalAlign=middle;resizable=0;points=[];autosize=1;strokeColor=none;fillColor=none;" parent="1" vertex="1">
          <mxGeometry x="516.25" y="640" width="50" height="30" as="geometry" />
        </mxCell>
        <mxCell id="zgxSZkuc60uicoKkog0m-74" value="" style="endArrow=block;dashed=1;endFill=0;endSize=12;html=1;rounded=0;fontFamily=Helvetica;fontSize=12;fontColor=default;" parent="1" source="zgxSZkuc60uicoKkog0m-57" target="zgxSZkuc60uicoKkog0m-53" edge="1">
          <mxGeometry width="160" relative="1" as="geometry">
            <mxPoint x="-650" y="460" as="sourcePoint" />
            <mxPoint x="-647" y="390" as="targetPoint" />
          </mxGeometry>
        </mxCell>
        <mxCell id="zgxSZkuc60uicoKkog0m-75" value="realizes" style="text;html=1;align=center;verticalAlign=middle;resizable=0;points=[];autosize=1;strokeColor=none;fillColor=none;" parent="1" vertex="1">
          <mxGeometry x="535" y="430" width="60" height="30" as="geometry" />
        </mxCell>
        <mxCell id="wdx6YsZoMJv4xEOq7K7D-2" value="" style="endArrow=diamondThin;endFill=0;endSize=24;html=1;rounded=0;fontFamily=Helvetica;fontSize=12;fontColor=default;entryX=1;entryY=0.5;entryDx=0;entryDy=0;exitX=0;exitY=0.5;exitDx=0;exitDy=0;" parent="1" source="zgxSZkuc60uicoKkog0m-20" target="zgxSZkuc60uicoKkog0m-15" edge="1">
          <mxGeometry width="160" relative="1" as="geometry">
            <mxPoint x="-70" y="610" as="sourcePoint" />
            <mxPoint x="40" y="613" as="targetPoint" />
          </mxGeometry>
        </mxCell>
        <mxCell id="zgxSZkuc60uicoKkog0m-70" value="" style="endArrow=diamondThin;endFill=1;endSize=24;html=1;rounded=0;fontFamily=Helvetica;fontSize=12;fontColor=default;entryX=1;entryY=0.5;entryDx=0;entryDy=0;" parent="1" source="zgxSZkuc60uicoKkog0m-53" target="zgxSZkuc60uicoKkog0m-5" edge="1">
          <mxGeometry width="160" relative="1" as="geometry">
            <mxPoint x="583.75" y="402" as="sourcePoint" />
            <mxPoint x="-40" y="102" as="targetPoint" />
          </mxGeometry>
        </mxCell>
      </root>
    </mxGraphModel>
  </diagram>
  <diagram id="qCKg8ueay9vBvoRFJQbA" name="class-diagram-changed-password">
    <mxGraphModel dx="2329" dy="583" grid="1" gridSize="10" guides="1" tooltips="1" connect="1" arrows="1" fold="1" page="1" pageScale="1" pageWidth="827" pageHeight="1169" math="0" shadow="0">
      <root>
        <mxCell id="0" />
        <mxCell id="1" parent="0" />
        <mxCell id="l7rjabktOgfafr0fkxMy-2" value="" style="whiteSpace=wrap;html=1;aspect=fixed;" parent="1" vertex="1">
          <mxGeometry x="-800" y="40" width="790" height="790" as="geometry" />
        </mxCell>
        <mxCell id="S0ZYSoeLDdDIWkEDqbyc-1" value="AccountControler" style="swimlane;fontStyle=1;align=center;verticalAlign=top;childLayout=stackLayout;horizontal=1;startSize=26;horizontalStack=0;resizeParent=1;resizeParentMax=0;resizeLast=0;collapsible=1;marginBottom=0;whiteSpace=wrap;html=1;" parent="1" vertex="1">
          <mxGeometry x="-750" y="100" width="290" height="112" as="geometry">
            <mxRectangle x="400" y="300" width="100" height="30" as="alternateBounds" />
          </mxGeometry>
        </mxCell>
        <mxCell id="S0ZYSoeLDdDIWkEDqbyc-3" value="&lt;font style=&quot;font-size: 10px;&quot;&gt;- accountService: AccountService&lt;/font&gt;" style="text;strokeColor=none;fillColor=none;align=left;verticalAlign=top;spacingLeft=4;spacingRight=4;overflow=hidden;rotatable=0;points=[[0,0.5],[1,0.5]];portConstraint=eastwest;whiteSpace=wrap;html=1;" parent="S0ZYSoeLDdDIWkEDqbyc-1" vertex="1">
          <mxGeometry y="26" width="290" height="26" as="geometry" />
        </mxCell>
        <mxCell id="S0ZYSoeLDdDIWkEDqbyc-5" value="" style="line;strokeWidth=1;fillColor=none;align=left;verticalAlign=middle;spacingTop=-1;spacingLeft=3;spacingRight=3;rotatable=0;labelPosition=right;points=[];portConstraint=eastwest;strokeColor=inherit;" parent="S0ZYSoeLDdDIWkEDqbyc-1" vertex="1">
          <mxGeometry y="52" width="290" height="8" as="geometry" />
        </mxCell>
        <mxCell id="S0ZYSoeLDdDIWkEDqbyc-6" value="&lt;font style=&quot;font-size: 10px;&quot;&gt;+ findByAccountId(id: Long) :&amp;nbsp; account | Null&lt;/font&gt;" style="text;strokeColor=none;fillColor=none;align=left;verticalAlign=top;spacingLeft=4;spacingRight=4;overflow=hidden;rotatable=0;points=[[0,0.5],[1,0.5]];portConstraint=eastwest;whiteSpace=wrap;html=1;" parent="S0ZYSoeLDdDIWkEDqbyc-1" vertex="1">
          <mxGeometry y="60" width="290" height="26" as="geometry" />
        </mxCell>
        <mxCell id="S0ZYSoeLDdDIWkEDqbyc-7" value="&lt;font style=&quot;font-size: 10px;&quot;&gt;+changeUserPassword(id: Long,account : Account ): Account&lt;/font&gt;&amp;nbsp;" style="text;strokeColor=none;fillColor=none;align=left;verticalAlign=top;spacingLeft=4;spacingRight=4;overflow=hidden;rotatable=0;points=[[0,0.5],[1,0.5]];portConstraint=eastwest;whiteSpace=wrap;html=1;" parent="S0ZYSoeLDdDIWkEDqbyc-1" vertex="1">
          <mxGeometry y="86" width="290" height="26" as="geometry" />
        </mxCell>
        <mxCell id="__o2Az5j0FxUIwIHLUvc-1" value="Account" style="swimlane;fontStyle=1;align=center;verticalAlign=top;childLayout=stackLayout;horizontal=1;startSize=26;horizontalStack=0;resizeParent=1;resizeParentMax=0;resizeLast=0;collapsible=1;marginBottom=0;whiteSpace=wrap;html=1;" parent="1" vertex="1">
          <mxGeometry x="-230" y="320" width="180" height="190" as="geometry">
            <mxRectangle x="400" y="300" width="100" height="30" as="alternateBounds" />
          </mxGeometry>
        </mxCell>
        <mxCell id="__o2Az5j0FxUIwIHLUvc-2" value="&lt;font style=&quot;font-size: 10px;&quot;&gt;- id: long&lt;/font&gt;" style="text;strokeColor=none;fillColor=none;align=left;verticalAlign=top;spacingLeft=4;spacingRight=4;overflow=hidden;rotatable=0;points=[[0,0.5],[1,0.5]];portConstraint=eastwest;whiteSpace=wrap;html=1;" parent="__o2Az5j0FxUIwIHLUvc-1" vertex="1">
          <mxGeometry y="26" width="180" height="26" as="geometry" />
        </mxCell>
        <mxCell id="__o2Az5j0FxUIwIHLUvc-3" value="&lt;font style=&quot;font-size: 10px;&quot;&gt;- name: string&lt;/font&gt;" style="text;strokeColor=none;fillColor=none;align=left;verticalAlign=top;spacingLeft=4;spacingRight=4;overflow=hidden;rotatable=0;points=[[0,0.5],[1,0.5]];portConstraint=eastwest;whiteSpace=wrap;html=1;" parent="__o2Az5j0FxUIwIHLUvc-1" vertex="1">
          <mxGeometry y="52" width="180" height="26" as="geometry" />
        </mxCell>
        <mxCell id="__o2Az5j0FxUIwIHLUvc-9" value="&lt;font style=&quot;font-size: 10px;&quot;&gt;- password: string&lt;/font&gt;" style="text;strokeColor=none;fillColor=none;align=left;verticalAlign=top;spacingLeft=4;spacingRight=4;overflow=hidden;rotatable=0;points=[[0,0.5],[1,0.5]];portConstraint=eastwest;whiteSpace=wrap;html=1;" parent="__o2Az5j0FxUIwIHLUvc-1" vertex="1">
          <mxGeometry y="78" width="180" height="26" as="geometry" />
        </mxCell>
        <mxCell id="__o2Az5j0FxUIwIHLUvc-10" value="&lt;font style=&quot;font-size: 10px;&quot;&gt;- email: string&lt;/font&gt;" style="text;strokeColor=none;fillColor=none;align=left;verticalAlign=top;spacingLeft=4;spacingRight=4;overflow=hidden;rotatable=0;points=[[0,0.5],[1,0.5]];portConstraint=eastwest;whiteSpace=wrap;html=1;" parent="__o2Az5j0FxUIwIHLUvc-1" vertex="1">
          <mxGeometry y="104" width="180" height="26" as="geometry" />
        </mxCell>
        <mxCell id="__o2Az5j0FxUIwIHLUvc-13" value="&lt;font style=&quot;font-size: 10px;&quot;&gt;- isEnable: boolean&lt;/font&gt;" style="text;strokeColor=none;fillColor=none;align=left;verticalAlign=top;spacingLeft=4;spacingRight=4;overflow=hidden;rotatable=0;points=[[0,0.5],[1,0.5]];portConstraint=eastwest;whiteSpace=wrap;html=1;" parent="__o2Az5j0FxUIwIHLUvc-1" vertex="1">
          <mxGeometry y="130" width="180" height="26" as="geometry" />
        </mxCell>
        <mxCell id="__o2Az5j0FxUIwIHLUvc-11" value="" style="line;strokeWidth=1;fillColor=none;align=left;verticalAlign=middle;spacingTop=-1;spacingLeft=3;spacingRight=3;rotatable=0;labelPosition=right;points=[];portConstraint=eastwest;strokeColor=inherit;" parent="__o2Az5j0FxUIwIHLUvc-1" vertex="1">
          <mxGeometry y="156" width="180" height="8" as="geometry" />
        </mxCell>
        <mxCell id="__o2Az5j0FxUIwIHLUvc-12" value="&lt;font style=&quot;font-size: 10px;&quot;&gt;+ getters/setters();&lt;/font&gt;" style="text;strokeColor=none;fillColor=none;align=left;verticalAlign=top;spacingLeft=4;spacingRight=4;overflow=hidden;rotatable=0;points=[[0,0.5],[1,0.5]];portConstraint=eastwest;whiteSpace=wrap;html=1;" parent="__o2Az5j0FxUIwIHLUvc-1" vertex="1">
          <mxGeometry y="164" width="180" height="26" as="geometry" />
        </mxCell>
        <mxCell id="2DhMEPXBlicp2_SYkDwv-1" value="&lt;span style=&quot;font-weight: normal;&quot;&gt;&lt;i&gt;&amp;lt;&amp;lt;Interface&amp;gt;&amp;gt;&lt;/i&gt;&lt;/span&gt;&lt;br&gt;AccountService" style="swimlane;fontStyle=1;align=center;verticalAlign=top;childLayout=stackLayout;horizontal=1;startSize=40;horizontalStack=0;resizeParent=1;resizeParentMax=0;resizeLast=0;collapsible=1;marginBottom=0;whiteSpace=wrap;html=1;" parent="1" vertex="1">
          <mxGeometry x="-790" y="290" width="370" height="126" as="geometry">
            <mxRectangle x="400" y="300" width="100" height="30" as="alternateBounds" />
          </mxGeometry>
        </mxCell>
        <mxCell id="2DhMEPXBlicp2_SYkDwv-2" value="" style="line;strokeWidth=1;fillColor=none;align=left;verticalAlign=middle;spacingTop=-1;spacingLeft=3;spacingRight=3;rotatable=0;labelPosition=right;points=[];portConstraint=eastwest;strokeColor=inherit;" parent="2DhMEPXBlicp2_SYkDwv-1" vertex="1">
          <mxGeometry y="40" width="370" height="8" as="geometry" />
        </mxCell>
        <mxCell id="KMTWBGjoC--GWXqQvTRm-2" value="&lt;font style=&quot;font-size: 10px;&quot;&gt;+ findByAccountId(id: Long) :&amp;nbsp; account | Null&lt;/font&gt;" style="text;strokeColor=none;fillColor=none;align=left;verticalAlign=top;spacingLeft=4;spacingRight=4;overflow=hidden;rotatable=0;points=[[0,0.5],[1,0.5]];portConstraint=eastwest;whiteSpace=wrap;html=1;" parent="2DhMEPXBlicp2_SYkDwv-1" vertex="1">
          <mxGeometry y="48" width="370" height="26" as="geometry" />
        </mxCell>
        <mxCell id="2DhMEPXBlicp2_SYkDwv-4" value="&lt;font style=&quot;font-size: 10px;&quot;&gt;+ saveChangeUserPassword(password: string,account: Account): Account&lt;/font&gt;" style="text;strokeColor=none;fillColor=none;align=left;verticalAlign=top;spacingLeft=4;spacingRight=4;overflow=hidden;rotatable=0;points=[[0,0.5],[1,0.5]];portConstraint=eastwest;whiteSpace=wrap;html=1;" parent="2DhMEPXBlicp2_SYkDwv-1" vertex="1">
          <mxGeometry y="74" width="370" height="26" as="geometry" />
        </mxCell>
        <mxCell id="YtbiT1I4SGvZSXFKBce--1" value="&lt;font style=&quot;font-size: 10px;&quot;&gt;+ saveChangeUserPassword(password: string,account: Account): Account&lt;/font&gt;" style="text;strokeColor=none;fillColor=none;align=left;verticalAlign=top;spacingLeft=4;spacingRight=4;overflow=hidden;rotatable=0;points=[[0,0.5],[1,0.5]];portConstraint=eastwest;whiteSpace=wrap;html=1;" parent="2DhMEPXBlicp2_SYkDwv-1" vertex="1">
          <mxGeometry y="100" width="370" height="26" as="geometry" />
        </mxCell>
        <mxCell id="2DhMEPXBlicp2_SYkDwv-5" value="AccountServiceImpl" style="swimlane;fontStyle=1;align=center;verticalAlign=top;childLayout=stackLayout;horizontal=1;startSize=30;horizontalStack=0;resizeParent=1;resizeParentMax=0;resizeLast=0;collapsible=1;marginBottom=0;whiteSpace=wrap;html=1;" parent="1" vertex="1">
          <mxGeometry x="-775" y="468.5" width="340" height="116" as="geometry">
            <mxRectangle x="400" y="300" width="100" height="30" as="alternateBounds" />
          </mxGeometry>
        </mxCell>
        <mxCell id="2DhMEPXBlicp2_SYkDwv-6" value="&lt;span style=&quot;font-size: 10px;&quot;&gt;- accountRepository : AccountRepository&lt;/span&gt;" style="text;strokeColor=none;fillColor=none;align=left;verticalAlign=top;spacingLeft=4;spacingRight=4;overflow=hidden;rotatable=0;points=[[0,0.5],[1,0.5]];portConstraint=eastwest;whiteSpace=wrap;html=1;" parent="2DhMEPXBlicp2_SYkDwv-5" vertex="1">
          <mxGeometry y="30" width="340" height="26" as="geometry" />
        </mxCell>
        <mxCell id="2DhMEPXBlicp2_SYkDwv-7" value="" style="line;strokeWidth=1;fillColor=none;align=left;verticalAlign=middle;spacingTop=-1;spacingLeft=3;spacingRight=3;rotatable=0;labelPosition=right;points=[];portConstraint=eastwest;strokeColor=inherit;" parent="2DhMEPXBlicp2_SYkDwv-5" vertex="1">
          <mxGeometry y="56" width="340" height="8" as="geometry" />
        </mxCell>
        <mxCell id="KMTWBGjoC--GWXqQvTRm-3" value="&lt;font style=&quot;font-size: 10px;&quot;&gt;+ findByAccountId(id: Long) :&amp;nbsp; account | Null&lt;/font&gt;" style="text;strokeColor=none;fillColor=none;align=left;verticalAlign=top;spacingLeft=4;spacingRight=4;overflow=hidden;rotatable=0;points=[[0,0.5],[1,0.5]];portConstraint=eastwest;whiteSpace=wrap;html=1;" parent="2DhMEPXBlicp2_SYkDwv-5" vertex="1">
          <mxGeometry y="64" width="340" height="26" as="geometry" />
        </mxCell>
        <mxCell id="KMTWBGjoC--GWXqQvTRm-4" value="&lt;font style=&quot;font-size: 10px;&quot;&gt;+ saveChangeUserPassword(password: string,account: Account): Account&lt;/font&gt;" style="text;strokeColor=none;fillColor=none;align=left;verticalAlign=top;spacingLeft=4;spacingRight=4;overflow=hidden;rotatable=0;points=[[0,0.5],[1,0.5]];portConstraint=eastwest;whiteSpace=wrap;html=1;" parent="2DhMEPXBlicp2_SYkDwv-5" vertex="1">
          <mxGeometry y="90" width="340" height="26" as="geometry" />
        </mxCell>
        <mxCell id="iuyQu7C6LXQNQ2na6rxG-1" value="&lt;span style=&quot;font-weight: normal;&quot;&gt;&lt;i&gt;&amp;lt;&amp;lt;Interface&amp;gt;&amp;gt;&lt;/i&gt;&lt;/span&gt;&lt;br&gt;Account&amp;lt;Account, Long&amp;gt;" style="swimlane;fontStyle=1;align=center;verticalAlign=top;childLayout=stackLayout;horizontal=1;startSize=40;horizontalStack=0;resizeParent=1;resizeParentMax=0;resizeLast=0;collapsible=1;marginBottom=0;whiteSpace=wrap;html=1;" parent="1" vertex="1">
          <mxGeometry x="-725" y="660" width="240" height="70" as="geometry">
            <mxRectangle x="400" y="300" width="100" height="30" as="alternateBounds" />
          </mxGeometry>
        </mxCell>
        <mxCell id="iuyQu7C6LXQNQ2na6rxG-2" value="" style="line;strokeWidth=1;fillColor=none;align=left;verticalAlign=middle;spacingTop=-1;spacingLeft=3;spacingRight=3;rotatable=0;labelPosition=right;points=[];portConstraint=eastwest;strokeColor=inherit;" parent="iuyQu7C6LXQNQ2na6rxG-1" vertex="1">
          <mxGeometry y="40" width="240" height="30" as="geometry" />
        </mxCell>
        <mxCell id="KMTWBGjoC--GWXqQvTRm-1" value="" style="endArrow=diamondThin;endFill=1;endSize=24;html=1;rounded=0;fontFamily=Helvetica;fontSize=12;fontColor=default;" parent="1" source="2DhMEPXBlicp2_SYkDwv-1" target="S0ZYSoeLDdDIWkEDqbyc-7" edge="1">
          <mxGeometry width="160" relative="1" as="geometry">
            <mxPoint x="-660" y="280" as="sourcePoint" />
            <mxPoint x="-600" y="126" as="targetPoint" />
          </mxGeometry>
        </mxCell>
        <mxCell id="_QlUKuociTHm512JtB25-1" value="owns" style="text;html=1;align=center;verticalAlign=middle;resizable=0;points=[];autosize=1;strokeColor=none;fillColor=none;" parent="1" vertex="1">
          <mxGeometry x="-600" y="250" width="50" height="30" as="geometry" />
        </mxCell>
        <mxCell id="3MumKQkMskjqAjvGGyxV-1" value="" style="endArrow=block;dashed=1;endFill=0;endSize=12;html=1;rounded=0;fontFamily=Helvetica;fontSize=12;fontColor=default;" parent="1" source="2DhMEPXBlicp2_SYkDwv-5" target="2DhMEPXBlicp2_SYkDwv-1" edge="1">
          <mxGeometry width="160" relative="1" as="geometry">
            <mxPoint x="-660" y="450" as="sourcePoint" />
            <mxPoint x="-657" y="380" as="targetPoint" />
          </mxGeometry>
        </mxCell>
        <mxCell id="hd0ue7uTeE82uuFAJM3A-1" value="realizes" style="text;html=1;align=center;verticalAlign=middle;resizable=0;points=[];autosize=1;strokeColor=none;fillColor=none;" parent="1" vertex="1">
          <mxGeometry x="-600" y="410" width="60" height="30" as="geometry" />
        </mxCell>
        <mxCell id="o9McVw20K9LEM__Ko1Il-1" value="Uses" style="endArrow=open;endSize=12;dashed=1;html=1;rounded=0;fontFamily=Helvetica;fontSize=12;fontColor=default;" parent="1" source="2DhMEPXBlicp2_SYkDwv-1" target="__o2Az5j0FxUIwIHLUvc-1" edge="1">
          <mxGeometry width="160" relative="1" as="geometry">
            <mxPoint x="-530" y="352" as="sourcePoint" />
            <mxPoint x="-310" y="391" as="targetPoint" />
          </mxGeometry>
        </mxCell>
        <mxCell id="o9McVw20K9LEM__Ko1Il-2" value="Uses" style="endArrow=open;endSize=12;dashed=1;html=1;rounded=0;fontFamily=Helvetica;fontSize=12;fontColor=default;" parent="1" source="2DhMEPXBlicp2_SYkDwv-5" target="__o2Az5j0FxUIwIHLUvc-1" edge="1">
          <mxGeometry width="160" relative="1" as="geometry">
            <mxPoint x="-520" y="362" as="sourcePoint" />
            <mxPoint x="-300" y="401" as="targetPoint" />
          </mxGeometry>
        </mxCell>
        <mxCell id="o9McVw20K9LEM__Ko1Il-3" value="Uses" style="endArrow=open;endSize=12;dashed=1;html=1;rounded=0;fontFamily=Helvetica;fontSize=12;fontColor=default;" parent="1" source="2DhMEPXBlicp2_SYkDwv-5" target="__o2Az5j0FxUIwIHLUvc-1" edge="1">
          <mxGeometry width="160" relative="1" as="geometry">
            <mxPoint x="-510" y="372" as="sourcePoint" />
            <mxPoint x="-290" y="411" as="targetPoint" />
          </mxGeometry>
        </mxCell>
        <mxCell id="dq7TfoPJBgdsMAxsJznr-1" value="&lt;span style=&quot;font-weight: normal;&quot;&gt;&lt;i&gt;&amp;lt;&amp;lt;Interface&amp;gt;&amp;gt;&lt;/i&gt;&lt;/span&gt;&lt;br&gt;JpaRepository" style="swimlane;fontStyle=1;align=center;verticalAlign=top;childLayout=stackLayout;horizontal=1;startSize=40;horizontalStack=0;resizeParent=1;resizeParentMax=0;resizeLast=0;collapsible=1;marginBottom=0;whiteSpace=wrap;html=1;" parent="1" vertex="1">
          <mxGeometry x="-340" y="640" width="240" height="70" as="geometry">
            <mxRectangle x="400" y="300" width="100" height="30" as="alternateBounds" />
          </mxGeometry>
        </mxCell>
        <mxCell id="dq7TfoPJBgdsMAxsJznr-2" value="" style="line;strokeWidth=1;fillColor=none;align=left;verticalAlign=middle;spacingTop=-1;spacingLeft=3;spacingRight=3;rotatable=0;labelPosition=right;points=[];portConstraint=eastwest;strokeColor=inherit;" parent="dq7TfoPJBgdsMAxsJznr-1" vertex="1">
          <mxGeometry y="40" width="240" height="30" as="geometry" />
        </mxCell>
        <mxCell id="ov2U-NL6BEQELXKAFF3M-1" value="is" style="endArrow=block;endSize=16;endFill=0;html=1;rounded=0;fontFamily=Helvetica;fontSize=12;fontColor=default;" parent="1" source="iuyQu7C6LXQNQ2na6rxG-1" target="dq7TfoPJBgdsMAxsJznr-1" edge="1">
          <mxGeometry width="160" relative="1" as="geometry">
            <mxPoint x="-500" y="728" as="sourcePoint" />
            <mxPoint x="-200" y="812" as="targetPoint" />
            <Array as="points" />
            <mxPoint as="offset" />
          </mxGeometry>
        </mxCell>
        <mxCell id="AH3BMPCd1CMrPa2GZzlX-1" value="Uses" style="endArrow=open;endSize=12;dashed=1;html=1;rounded=0;fontFamily=Helvetica;fontSize=12;fontColor=default;" parent="1" source="iuyQu7C6LXQNQ2na6rxG-1" target="__o2Az5j0FxUIwIHLUvc-1" edge="1">
          <mxGeometry width="160" relative="1" as="geometry">
            <mxPoint x="-425" y="482" as="sourcePoint" />
            <mxPoint x="-240" y="444" as="targetPoint" />
          </mxGeometry>
        </mxCell>
        <mxCell id="AH3BMPCd1CMrPa2GZzlX-2" value="Uses" style="endArrow=open;endSize=12;dashed=1;html=1;rounded=0;fontFamily=Helvetica;fontSize=12;fontColor=default;" parent="1" source="S0ZYSoeLDdDIWkEDqbyc-1" target="__o2Az5j0FxUIwIHLUvc-1" edge="1">
          <mxGeometry width="160" relative="1" as="geometry">
            <mxPoint x="-410" y="389" as="sourcePoint" />
            <mxPoint x="-240" y="412" as="targetPoint" />
          </mxGeometry>
        </mxCell>
        <mxCell id="8vESuIGtTNvs0K1qM2u1-1" value="" style="endArrow=diamondThin;endFill=1;endSize=24;html=1;rounded=0;fontFamily=Helvetica;fontSize=12;fontColor=default;" parent="1" source="iuyQu7C6LXQNQ2na6rxG-1" target="2DhMEPXBlicp2_SYkDwv-5" edge="1">
          <mxGeometry width="160" relative="1" as="geometry">
            <mxPoint x="-620" y="660" as="sourcePoint" />
            <mxPoint x="-646" y="566" as="targetPoint" />
          </mxGeometry>
        </mxCell>
        <mxCell id="8vESuIGtTNvs0K1qM2u1-2" value="owns" style="text;html=1;align=center;verticalAlign=middle;resizable=0;points=[];autosize=1;strokeColor=none;fillColor=none;" parent="1" vertex="1">
          <mxGeometry x="-600" y="620" width="50" height="30" as="geometry" />
        </mxCell>
      </root>
    </mxGraphModel>
  </diagram>
  <diagram id="eNA-EWEqHgzrLJartpq-" name="class-diagram-update-Customer">
    <mxGraphModel dx="2329" dy="583" grid="1" gridSize="10" guides="1" tooltips="1" connect="1" arrows="1" fold="1" page="1" pageScale="1" pageWidth="827" pageHeight="1169" math="0" shadow="0">
      <root>
        <mxCell id="0" />
        <mxCell id="1" parent="0" />
        <mxCell id="ka6Z36ae_qD6xATqbkND-14" value="CustomerControler" style="swimlane;fontStyle=1;align=center;verticalAlign=top;childLayout=stackLayout;horizontal=1;startSize=26;horizontalStack=0;resizeParent=1;resizeParentMax=0;resizeLast=0;collapsible=1;marginBottom=0;whiteSpace=wrap;html=1;" parent="1" vertex="1">
          <mxGeometry x="-220" y="80" width="280" height="138" as="geometry">
            <mxRectangle x="400" y="300" width="100" height="30" as="alternateBounds" />
          </mxGeometry>
        </mxCell>
        <mxCell id="ka6Z36ae_qD6xATqbkND-15" value="&lt;font style=&quot;font-size: 10px;&quot;&gt;- customerService: CustomerService&lt;/font&gt;" style="text;strokeColor=none;fillColor=none;align=left;verticalAlign=top;spacingLeft=4;spacingRight=4;overflow=hidden;rotatable=0;points=[[0,0.5],[1,0.5]];portConstraint=eastwest;whiteSpace=wrap;html=1;" parent="ka6Z36ae_qD6xATqbkND-14" vertex="1">
          <mxGeometry y="26" width="280" height="26" as="geometry" />
        </mxCell>
        <mxCell id="ka6Z36ae_qD6xATqbkND-124" value="&lt;font style=&quot;font-size: 10px;&quot;&gt;- customerTypeService: CustomerTypeService&lt;/font&gt;" style="text;strokeColor=none;fillColor=none;align=left;verticalAlign=top;spacingLeft=4;spacingRight=4;overflow=hidden;rotatable=0;points=[[0,0.5],[1,0.5]];portConstraint=eastwest;whiteSpace=wrap;html=1;" parent="ka6Z36ae_qD6xATqbkND-14" vertex="1">
          <mxGeometry y="52" width="280" height="26" as="geometry" />
        </mxCell>
        <mxCell id="ka6Z36ae_qD6xATqbkND-16" value="" style="line;strokeWidth=1;fillColor=none;align=left;verticalAlign=middle;spacingTop=-1;spacingLeft=3;spacingRight=3;rotatable=0;labelPosition=right;points=[];portConstraint=eastwest;strokeColor=inherit;" parent="ka6Z36ae_qD6xATqbkND-14" vertex="1">
          <mxGeometry y="78" width="280" height="8" as="geometry" />
        </mxCell>
        <mxCell id="ka6Z36ae_qD6xATqbkND-108" value="&lt;font style=&quot;font-size: 10px;&quot;&gt;+ findByCustomerId(id: Long) :&amp;nbsp; Customer | Null&lt;/font&gt;" style="text;strokeColor=none;fillColor=none;align=left;verticalAlign=top;spacingLeft=4;spacingRight=4;overflow=hidden;rotatable=0;points=[[0,0.5],[1,0.5]];portConstraint=eastwest;whiteSpace=wrap;html=1;" parent="ka6Z36ae_qD6xATqbkND-14" vertex="1">
          <mxGeometry y="86" width="280" height="26" as="geometry" />
        </mxCell>
        <mxCell id="ka6Z36ae_qD6xATqbkND-18" value="&lt;font style=&quot;font-size: 10px;&quot;&gt;+ editCustomer(id: Long,customer: Customer): Customer&amp;nbsp;&lt;/font&gt;" style="text;strokeColor=none;fillColor=none;align=left;verticalAlign=top;spacingLeft=4;spacingRight=4;overflow=hidden;rotatable=0;points=[[0,0.5],[1,0.5]];portConstraint=eastwest;whiteSpace=wrap;html=1;" parent="ka6Z36ae_qD6xATqbkND-14" vertex="1">
          <mxGeometry y="112" width="280" height="26" as="geometry" />
        </mxCell>
        <mxCell id="ka6Z36ae_qD6xATqbkND-69" value="Customer" style="swimlane;fontStyle=1;align=center;verticalAlign=top;childLayout=stackLayout;horizontal=1;startSize=26;horizontalStack=0;resizeParent=1;resizeParentMax=0;resizeLast=0;collapsible=1;marginBottom=0;whiteSpace=wrap;html=1;" parent="1" vertex="1">
          <mxGeometry x="-300" y="316" width="180" height="294" as="geometry">
            <mxRectangle x="400" y="300" width="100" height="30" as="alternateBounds" />
          </mxGeometry>
        </mxCell>
        <mxCell id="ka6Z36ae_qD6xATqbkND-70" value="&lt;font style=&quot;font-size: 10px;&quot;&gt;- id: long&lt;/font&gt;" style="text;strokeColor=none;fillColor=none;align=left;verticalAlign=top;spacingLeft=4;spacingRight=4;overflow=hidden;rotatable=0;points=[[0,0.5],[1,0.5]];portConstraint=eastwest;whiteSpace=wrap;html=1;" parent="ka6Z36ae_qD6xATqbkND-69" vertex="1">
          <mxGeometry y="26" width="180" height="26" as="geometry" />
        </mxCell>
        <mxCell id="ka6Z36ae_qD6xATqbkND-71" value="&lt;font style=&quot;font-size: 10px;&quot;&gt;- name: string&lt;/font&gt;" style="text;strokeColor=none;fillColor=none;align=left;verticalAlign=top;spacingLeft=4;spacingRight=4;overflow=hidden;rotatable=0;points=[[0,0.5],[1,0.5]];portConstraint=eastwest;whiteSpace=wrap;html=1;" parent="ka6Z36ae_qD6xATqbkND-69" vertex="1">
          <mxGeometry y="52" width="180" height="26" as="geometry" />
        </mxCell>
        <mxCell id="ka6Z36ae_qD6xATqbkND-72" value="&lt;font style=&quot;font-size: 10px;&quot;&gt;- phone: string&lt;/font&gt;" style="text;strokeColor=none;fillColor=none;align=left;verticalAlign=top;spacingLeft=4;spacingRight=4;overflow=hidden;rotatable=0;points=[[0,0.5],[1,0.5]];portConstraint=eastwest;whiteSpace=wrap;html=1;" parent="ka6Z36ae_qD6xATqbkND-69" vertex="1">
          <mxGeometry y="78" width="180" height="26" as="geometry" />
        </mxCell>
        <mxCell id="ka6Z36ae_qD6xATqbkND-73" value="&lt;font style=&quot;font-size: 10px;&quot;&gt;- gender: boolean&lt;/font&gt;" style="text;strokeColor=none;fillColor=none;align=left;verticalAlign=top;spacingLeft=4;spacingRight=4;overflow=hidden;rotatable=0;points=[[0,0.5],[1,0.5]];portConstraint=eastwest;whiteSpace=wrap;html=1;" parent="ka6Z36ae_qD6xATqbkND-69" vertex="1">
          <mxGeometry y="104" width="180" height="26" as="geometry" />
        </mxCell>
        <mxCell id="ka6Z36ae_qD6xATqbkND-74" value="&lt;font style=&quot;font-size: 10px;&quot;&gt;- dateOfBirth: boolean&lt;/font&gt;" style="text;strokeColor=none;fillColor=none;align=left;verticalAlign=top;spacingLeft=4;spacingRight=4;overflow=hidden;rotatable=0;points=[[0,0.5],[1,0.5]];portConstraint=eastwest;whiteSpace=wrap;html=1;" parent="ka6Z36ae_qD6xATqbkND-69" vertex="1">
          <mxGeometry y="130" width="180" height="26" as="geometry" />
        </mxCell>
        <mxCell id="ka6Z36ae_qD6xATqbkND-75" value="&lt;font style=&quot;font-size: 10px;&quot;&gt;- idCard: string&lt;/font&gt;" style="text;strokeColor=none;fillColor=none;align=left;verticalAlign=top;spacingLeft=4;spacingRight=4;overflow=hidden;rotatable=0;points=[[0,0.5],[1,0.5]];portConstraint=eastwest;whiteSpace=wrap;html=1;" parent="ka6Z36ae_qD6xATqbkND-69" vertex="1">
          <mxGeometry y="156" width="180" height="26" as="geometry" />
        </mxCell>
        <mxCell id="ka6Z36ae_qD6xATqbkND-76" value="&lt;font style=&quot;font-size: 10px;&quot;&gt;- customerAddress: string&lt;/font&gt;" style="text;strokeColor=none;fillColor=none;align=left;verticalAlign=top;spacingLeft=4;spacingRight=4;overflow=hidden;rotatable=0;points=[[0,0.5],[1,0.5]];portConstraint=eastwest;whiteSpace=wrap;html=1;" parent="ka6Z36ae_qD6xATqbkND-69" vertex="1">
          <mxGeometry y="182" width="180" height="26" as="geometry" />
        </mxCell>
        <mxCell id="ka6Z36ae_qD6xATqbkND-77" value="&lt;font style=&quot;font-size: 10px;&quot;&gt;- customerTypeId: CustomerType&lt;/font&gt;" style="text;strokeColor=none;fillColor=none;align=left;verticalAlign=top;spacingLeft=4;spacingRight=4;overflow=hidden;rotatable=0;points=[[0,0.5],[1,0.5]];portConstraint=eastwest;whiteSpace=wrap;html=1;" parent="ka6Z36ae_qD6xATqbkND-69" vertex="1">
          <mxGeometry y="208" width="180" height="26" as="geometry" />
        </mxCell>
        <mxCell id="ka6Z36ae_qD6xATqbkND-78" value="&lt;font style=&quot;font-size: 10px;&quot;&gt;- customerImg: string&lt;/font&gt;" style="text;strokeColor=none;fillColor=none;align=left;verticalAlign=top;spacingLeft=4;spacingRight=4;overflow=hidden;rotatable=0;points=[[0,0.5],[1,0.5]];portConstraint=eastwest;whiteSpace=wrap;html=1;" parent="ka6Z36ae_qD6xATqbkND-69" vertex="1">
          <mxGeometry y="234" width="180" height="26" as="geometry" />
        </mxCell>
        <mxCell id="ka6Z36ae_qD6xATqbkND-79" value="" style="line;strokeWidth=1;fillColor=none;align=left;verticalAlign=middle;spacingTop=-1;spacingLeft=3;spacingRight=3;rotatable=0;labelPosition=right;points=[];portConstraint=eastwest;strokeColor=inherit;" parent="ka6Z36ae_qD6xATqbkND-69" vertex="1">
          <mxGeometry y="260" width="180" height="8" as="geometry" />
        </mxCell>
        <mxCell id="ka6Z36ae_qD6xATqbkND-80" value="&lt;font style=&quot;font-size: 10px;&quot;&gt;+ getters/setters();&lt;/font&gt;" style="text;strokeColor=none;fillColor=none;align=left;verticalAlign=top;spacingLeft=4;spacingRight=4;overflow=hidden;rotatable=0;points=[[0,0.5],[1,0.5]];portConstraint=eastwest;whiteSpace=wrap;html=1;" parent="ka6Z36ae_qD6xATqbkND-69" vertex="1">
          <mxGeometry y="268" width="180" height="26" as="geometry" />
        </mxCell>
        <mxCell id="ka6Z36ae_qD6xATqbkND-81" value="CustomerType" style="swimlane;fontStyle=1;align=center;verticalAlign=top;childLayout=stackLayout;horizontal=1;startSize=26;horizontalStack=0;resizeParent=1;resizeParentMax=0;resizeLast=0;collapsible=1;marginBottom=0;whiteSpace=wrap;html=1;" parent="1" vertex="1">
          <mxGeometry x="-50" y="384" width="180" height="112" as="geometry">
            <mxRectangle x="400" y="300" width="100" height="30" as="alternateBounds" />
          </mxGeometry>
        </mxCell>
        <mxCell id="ka6Z36ae_qD6xATqbkND-82" value="&lt;font style=&quot;font-size: 10px;&quot;&gt;- id: long&lt;/font&gt;" style="text;strokeColor=none;fillColor=none;align=left;verticalAlign=top;spacingLeft=4;spacingRight=4;overflow=hidden;rotatable=0;points=[[0,0.5],[1,0.5]];portConstraint=eastwest;whiteSpace=wrap;html=1;" parent="ka6Z36ae_qD6xATqbkND-81" vertex="1">
          <mxGeometry y="26" width="180" height="26" as="geometry" />
        </mxCell>
        <mxCell id="ka6Z36ae_qD6xATqbkND-83" value="&lt;font style=&quot;font-size: 10px;&quot;&gt;- name: string&lt;/font&gt;" style="text;strokeColor=none;fillColor=none;align=left;verticalAlign=top;spacingLeft=4;spacingRight=4;overflow=hidden;rotatable=0;points=[[0,0.5],[1,0.5]];portConstraint=eastwest;whiteSpace=wrap;html=1;" parent="ka6Z36ae_qD6xATqbkND-81" vertex="1">
          <mxGeometry y="52" width="180" height="26" as="geometry" />
        </mxCell>
        <mxCell id="ka6Z36ae_qD6xATqbkND-84" value="" style="line;strokeWidth=1;fillColor=none;align=left;verticalAlign=middle;spacingTop=-1;spacingLeft=3;spacingRight=3;rotatable=0;labelPosition=right;points=[];portConstraint=eastwest;strokeColor=inherit;" parent="ka6Z36ae_qD6xATqbkND-81" vertex="1">
          <mxGeometry y="78" width="180" height="8" as="geometry" />
        </mxCell>
        <mxCell id="ka6Z36ae_qD6xATqbkND-85" value="&lt;font style=&quot;font-size: 10px;&quot;&gt;+ getters/setters();&lt;/font&gt;" style="text;strokeColor=none;fillColor=none;align=left;verticalAlign=top;spacingLeft=4;spacingRight=4;overflow=hidden;rotatable=0;points=[[0,0.5],[1,0.5]];portConstraint=eastwest;whiteSpace=wrap;html=1;" parent="ka6Z36ae_qD6xATqbkND-81" vertex="1">
          <mxGeometry y="86" width="180" height="26" as="geometry" />
        </mxCell>
        <mxCell id="ka6Z36ae_qD6xATqbkND-86" value="" style="endArrow=diamondThin;endFill=0;endSize=24;html=1;rounded=0;fontFamily=Helvetica;fontSize=12;fontColor=default;" parent="1" source="ka6Z36ae_qD6xATqbkND-81" target="ka6Z36ae_qD6xATqbkND-69" edge="1">
          <mxGeometry width="160" relative="1" as="geometry">
            <mxPoint x="-20" y="240" as="sourcePoint" />
            <mxPoint x="52" y="507" as="targetPoint" />
          </mxGeometry>
        </mxCell>
        <mxCell id="ka6Z36ae_qD6xATqbkND-90" value="&lt;span style=&quot;font-weight: normal;&quot;&gt;&lt;i&gt;&amp;lt;&amp;lt;Interface&amp;gt;&amp;gt;&lt;/i&gt;&lt;/span&gt;&lt;br&gt;CustomerService&lt;br&gt;" style="swimlane;fontStyle=1;align=center;verticalAlign=top;childLayout=stackLayout;horizontal=1;startSize=40;horizontalStack=0;resizeParent=1;resizeParentMax=0;resizeLast=0;collapsible=1;marginBottom=0;whiteSpace=wrap;html=1;" parent="1" vertex="1">
          <mxGeometry x="-787.5" y="268" width="250" height="100" as="geometry">
            <mxRectangle x="400" y="300" width="100" height="30" as="alternateBounds" />
          </mxGeometry>
        </mxCell>
        <mxCell id="ka6Z36ae_qD6xATqbkND-92" value="" style="line;strokeWidth=1;fillColor=none;align=left;verticalAlign=middle;spacingTop=-1;spacingLeft=3;spacingRight=3;rotatable=0;labelPosition=right;points=[];portConstraint=eastwest;strokeColor=inherit;" parent="ka6Z36ae_qD6xATqbkND-90" vertex="1">
          <mxGeometry y="40" width="250" height="8" as="geometry" />
        </mxCell>
        <mxCell id="I6_gx4nLKWm75VFUpXj9-2" value="&lt;font style=&quot;font-size: 10px;&quot;&gt;+ findByCustomerId(id: Long) :&amp;nbsp; Customer | Null&lt;/font&gt;" style="text;strokeColor=none;fillColor=none;align=left;verticalAlign=top;spacingLeft=4;spacingRight=4;overflow=hidden;rotatable=0;points=[[0,0.5],[1,0.5]];portConstraint=eastwest;whiteSpace=wrap;html=1;" parent="ka6Z36ae_qD6xATqbkND-90" vertex="1">
          <mxGeometry y="48" width="250" height="26" as="geometry" />
        </mxCell>
        <mxCell id="v6R7fs4tptU4WKhiGAcR-8" value="&lt;font style=&quot;font-size: 10px;&quot;&gt;+ saveCustomer(customer: Customer): Customer&amp;nbsp;&lt;/font&gt;" style="text;strokeColor=none;fillColor=none;align=left;verticalAlign=top;spacingLeft=4;spacingRight=4;overflow=hidden;rotatable=0;points=[[0,0.5],[1,0.5]];portConstraint=eastwest;whiteSpace=wrap;html=1;" parent="ka6Z36ae_qD6xATqbkND-90" vertex="1">
          <mxGeometry y="74" width="250" height="26" as="geometry" />
        </mxCell>
        <mxCell id="ka6Z36ae_qD6xATqbkND-98" value="" style="endArrow=diamondThin;endFill=1;endSize=24;html=1;rounded=0;fontFamily=Helvetica;fontSize=12;fontColor=default;" parent="1" source="ka6Z36ae_qD6xATqbkND-90" target="ka6Z36ae_qD6xATqbkND-14" edge="1">
          <mxGeometry width="160" relative="1" as="geometry">
            <mxPoint x="-660" y="280" as="sourcePoint" />
            <mxPoint x="-650" y="210" as="targetPoint" />
          </mxGeometry>
        </mxCell>
        <mxCell id="ka6Z36ae_qD6xATqbkND-99" value="owns" style="text;html=1;align=center;verticalAlign=middle;resizable=0;points=[];autosize=1;strokeColor=none;fillColor=none;" parent="1" vertex="1">
          <mxGeometry x="-490" y="208" width="50" height="30" as="geometry" />
        </mxCell>
        <mxCell id="ka6Z36ae_qD6xATqbkND-100" value="CustomerServiceImpl" style="swimlane;fontStyle=1;align=center;verticalAlign=top;childLayout=stackLayout;horizontal=1;startSize=30;horizontalStack=0;resizeParent=1;resizeParentMax=0;resizeLast=0;collapsible=1;marginBottom=0;whiteSpace=wrap;html=1;" parent="1" vertex="1">
          <mxGeometry x="-795" y="450" width="265" height="116" as="geometry">
            <mxRectangle x="400" y="300" width="100" height="30" as="alternateBounds" />
          </mxGeometry>
        </mxCell>
        <mxCell id="ka6Z36ae_qD6xATqbkND-107" value="&lt;span style=&quot;font-size: 10px;&quot;&gt;- customerRepository : CustomerRepository&lt;/span&gt;" style="text;strokeColor=none;fillColor=none;align=left;verticalAlign=top;spacingLeft=4;spacingRight=4;overflow=hidden;rotatable=0;points=[[0,0.5],[1,0.5]];portConstraint=eastwest;whiteSpace=wrap;html=1;" parent="ka6Z36ae_qD6xATqbkND-100" vertex="1">
          <mxGeometry y="30" width="265" height="26" as="geometry" />
        </mxCell>
        <mxCell id="ka6Z36ae_qD6xATqbkND-101" value="" style="line;strokeWidth=1;fillColor=none;align=left;verticalAlign=middle;spacingTop=-1;spacingLeft=3;spacingRight=3;rotatable=0;labelPosition=right;points=[];portConstraint=eastwest;strokeColor=inherit;" parent="ka6Z36ae_qD6xATqbkND-100" vertex="1">
          <mxGeometry y="56" width="265" height="8" as="geometry" />
        </mxCell>
        <mxCell id="v6R7fs4tptU4WKhiGAcR-1" value="&lt;font style=&quot;font-size: 10px;&quot;&gt;+ findByCustomerId(id: Long) :&amp;nbsp; Customer | Null&lt;/font&gt;" style="text;strokeColor=none;fillColor=none;align=left;verticalAlign=top;spacingLeft=4;spacingRight=4;overflow=hidden;rotatable=0;points=[[0,0.5],[1,0.5]];portConstraint=eastwest;whiteSpace=wrap;html=1;" parent="ka6Z36ae_qD6xATqbkND-100" vertex="1">
          <mxGeometry y="64" width="265" height="26" as="geometry" />
        </mxCell>
        <mxCell id="ka6Z36ae_qD6xATqbkND-94" value="&lt;font style=&quot;font-size: 10px;&quot;&gt;+ saveCustomer(customer: Customer): Customer&amp;nbsp;&lt;/font&gt;" style="text;strokeColor=none;fillColor=none;align=left;verticalAlign=top;spacingLeft=4;spacingRight=4;overflow=hidden;rotatable=0;points=[[0,0.5],[1,0.5]];portConstraint=eastwest;whiteSpace=wrap;html=1;" parent="ka6Z36ae_qD6xATqbkND-100" vertex="1">
          <mxGeometry y="90" width="265" height="26" as="geometry" />
        </mxCell>
        <mxCell id="ka6Z36ae_qD6xATqbkND-104" value="" style="endArrow=block;dashed=1;endFill=0;endSize=12;html=1;rounded=0;fontFamily=Helvetica;fontSize=12;fontColor=default;" parent="1" source="ka6Z36ae_qD6xATqbkND-100" target="ka6Z36ae_qD6xATqbkND-90" edge="1">
          <mxGeometry width="160" relative="1" as="geometry">
            <mxPoint x="-620.5899999999999" y="447" as="sourcePoint" />
            <mxPoint x="-680" y="390" as="targetPoint" />
          </mxGeometry>
        </mxCell>
        <mxCell id="ka6Z36ae_qD6xATqbkND-106" value="realizes" style="text;html=1;align=center;verticalAlign=middle;resizable=0;points=[];autosize=1;strokeColor=none;fillColor=none;" parent="1" vertex="1">
          <mxGeometry x="-660" y="410" width="60" height="30" as="geometry" />
        </mxCell>
        <mxCell id="ka6Z36ae_qD6xATqbkND-109" value="&lt;span style=&quot;font-weight: normal;&quot;&gt;&lt;i&gt;&amp;lt;&amp;lt;Interface&amp;gt;&amp;gt;&lt;/i&gt;&lt;/span&gt;&lt;br&gt;CustomerRepository&amp;lt;Customer, Long&amp;gt;" style="swimlane;fontStyle=1;align=center;verticalAlign=top;childLayout=stackLayout;horizontal=1;startSize=40;horizontalStack=0;resizeParent=1;resizeParentMax=0;resizeLast=0;collapsible=1;marginBottom=0;whiteSpace=wrap;html=1;" parent="1" vertex="1">
          <mxGeometry x="-740" y="660" width="240" height="70" as="geometry">
            <mxRectangle x="400" y="300" width="100" height="30" as="alternateBounds" />
          </mxGeometry>
        </mxCell>
        <mxCell id="ka6Z36ae_qD6xATqbkND-110" value="" style="line;strokeWidth=1;fillColor=none;align=left;verticalAlign=middle;spacingTop=-1;spacingLeft=3;spacingRight=3;rotatable=0;labelPosition=right;points=[];portConstraint=eastwest;strokeColor=inherit;" parent="ka6Z36ae_qD6xATqbkND-109" vertex="1">
          <mxGeometry y="40" width="240" height="30" as="geometry" />
        </mxCell>
        <mxCell id="ka6Z36ae_qD6xATqbkND-113" value="" style="endArrow=diamondThin;endFill=1;endSize=24;html=1;rounded=0;fontFamily=Helvetica;fontSize=12;fontColor=default;exitX=0.5;exitY=0;exitDx=0;exitDy=0;" parent="1" source="ka6Z36ae_qD6xATqbkND-109" target="ka6Z36ae_qD6xATqbkND-100" edge="1">
          <mxGeometry width="160" relative="1" as="geometry">
            <mxPoint x="-610" y="290" as="sourcePoint" />
            <mxPoint x="-470" y="590" as="targetPoint" />
          </mxGeometry>
        </mxCell>
        <mxCell id="ka6Z36ae_qD6xATqbkND-114" value="owns" style="text;html=1;align=center;verticalAlign=middle;resizable=0;points=[];autosize=1;strokeColor=none;fillColor=none;" parent="1" vertex="1">
          <mxGeometry x="-675" y="610" width="50" height="30" as="geometry" />
        </mxCell>
        <mxCell id="ka6Z36ae_qD6xATqbkND-115" value="Uses" style="endArrow=open;endSize=12;dashed=1;html=1;rounded=0;fontFamily=Helvetica;fontSize=12;fontColor=default;" parent="1" source="ka6Z36ae_qD6xATqbkND-14" target="ka6Z36ae_qD6xATqbkND-69" edge="1">
          <mxGeometry width="160" relative="1" as="geometry">
            <mxPoint x="450" y="875" as="sourcePoint" />
            <mxPoint x="-330" y="560" as="targetPoint" />
          </mxGeometry>
        </mxCell>
        <mxCell id="ka6Z36ae_qD6xATqbkND-116" value="Uses" style="endArrow=open;endSize=12;dashed=1;html=1;rounded=0;fontFamily=Helvetica;fontSize=12;fontColor=default;" parent="1" source="ka6Z36ae_qD6xATqbkND-90" target="ka6Z36ae_qD6xATqbkND-69" edge="1">
          <mxGeometry width="160" relative="1" as="geometry">
            <mxPoint x="-529" y="222" as="sourcePoint" />
            <mxPoint x="-280" y="393" as="targetPoint" />
          </mxGeometry>
        </mxCell>
        <mxCell id="ka6Z36ae_qD6xATqbkND-117" value="Uses" style="endArrow=open;endSize=12;dashed=1;html=1;rounded=0;fontFamily=Helvetica;fontSize=12;fontColor=default;" parent="1" source="ka6Z36ae_qD6xATqbkND-100" target="ka6Z36ae_qD6xATqbkND-69" edge="1">
          <mxGeometry width="160" relative="1" as="geometry">
            <mxPoint x="-520" y="365" as="sourcePoint" />
            <mxPoint x="-280" y="430" as="targetPoint" />
          </mxGeometry>
        </mxCell>
        <mxCell id="ka6Z36ae_qD6xATqbkND-118" value="Uses" style="endArrow=open;endSize=12;dashed=1;html=1;rounded=0;fontFamily=Helvetica;fontSize=12;fontColor=default;" parent="1" source="ka6Z36ae_qD6xATqbkND-109" target="ka6Z36ae_qD6xATqbkND-69" edge="1">
          <mxGeometry width="160" relative="1" as="geometry">
            <mxPoint x="-505" y="502" as="sourcePoint" />
            <mxPoint x="-280" y="469" as="targetPoint" />
          </mxGeometry>
        </mxCell>
        <mxCell id="ka6Z36ae_qD6xATqbkND-119" value="&lt;span style=&quot;font-weight: normal;&quot;&gt;&lt;i&gt;&amp;lt;&amp;lt;Interface&amp;gt;&amp;gt;&lt;/i&gt;&lt;/span&gt;&lt;br&gt;JpaRepository" style="swimlane;fontStyle=1;align=center;verticalAlign=top;childLayout=stackLayout;horizontal=1;startSize=40;horizontalStack=0;resizeParent=1;resizeParentMax=0;resizeLast=0;collapsible=1;marginBottom=0;whiteSpace=wrap;html=1;" parent="1" vertex="1">
          <mxGeometry x="-220" y="710" width="240" height="70" as="geometry">
            <mxRectangle x="400" y="300" width="100" height="30" as="alternateBounds" />
          </mxGeometry>
        </mxCell>
        <mxCell id="ka6Z36ae_qD6xATqbkND-120" value="" style="line;strokeWidth=1;fillColor=none;align=left;verticalAlign=middle;spacingTop=-1;spacingLeft=3;spacingRight=3;rotatable=0;labelPosition=right;points=[];portConstraint=eastwest;strokeColor=inherit;" parent="ka6Z36ae_qD6xATqbkND-119" vertex="1">
          <mxGeometry y="40" width="240" height="30" as="geometry" />
        </mxCell>
        <mxCell id="ka6Z36ae_qD6xATqbkND-121" value="is" style="endArrow=block;endSize=16;endFill=0;html=1;rounded=0;fontFamily=Helvetica;fontSize=12;fontColor=default;" parent="1" source="ka6Z36ae_qD6xATqbkND-109" target="ka6Z36ae_qD6xATqbkND-119" edge="1">
          <mxGeometry width="160" relative="1" as="geometry">
            <mxPoint x="-930" y="1050" as="sourcePoint" />
            <mxPoint x="790" y="1563" as="targetPoint" />
            <Array as="points" />
            <mxPoint as="offset" />
          </mxGeometry>
        </mxCell>
        <mxCell id="ka6Z36ae_qD6xATqbkND-128" value="&lt;span style=&quot;font-weight: normal;&quot;&gt;&lt;i&gt;&amp;lt;&amp;lt;Interface&amp;gt;&amp;gt;&lt;/i&gt;&lt;/span&gt;&lt;br&gt;CustomerTypeService" style="swimlane;fontStyle=1;align=center;verticalAlign=top;childLayout=stackLayout;horizontal=1;startSize=40;horizontalStack=0;resizeParent=1;resizeParentMax=0;resizeLast=0;collapsible=1;marginBottom=0;whiteSpace=wrap;html=1;" parent="1" vertex="1">
          <mxGeometry x="259.25" y="298" width="357.5" height="100" as="geometry">
            <mxRectangle x="400" y="300" width="100" height="30" as="alternateBounds" />
          </mxGeometry>
        </mxCell>
        <mxCell id="ka6Z36ae_qD6xATqbkND-129" value="" style="line;strokeWidth=1;fillColor=none;align=left;verticalAlign=middle;spacingTop=-1;spacingLeft=3;spacingRight=3;rotatable=0;labelPosition=right;points=[];portConstraint=eastwest;strokeColor=inherit;" parent="ka6Z36ae_qD6xATqbkND-128" vertex="1">
          <mxGeometry y="40" width="357.5" height="8" as="geometry" />
        </mxCell>
        <mxCell id="v6R7fs4tptU4WKhiGAcR-7" value="&lt;font style=&quot;font-size: 10px;&quot;&gt;+ findByCustomerTypeId(id: Long) :&amp;nbsp; CustomerType | Null&lt;/font&gt;" style="text;strokeColor=none;fillColor=none;align=left;verticalAlign=top;spacingLeft=4;spacingRight=4;overflow=hidden;rotatable=0;points=[[0,0.5],[1,0.5]];portConstraint=eastwest;whiteSpace=wrap;html=1;" parent="ka6Z36ae_qD6xATqbkND-128" vertex="1">
          <mxGeometry y="48" width="357.5" height="26" as="geometry" />
        </mxCell>
        <mxCell id="ka6Z36ae_qD6xATqbkND-131" value="&lt;font style=&quot;font-size: 10px;&quot;&gt;+ saveCustomerType(customerType: CustomerType): CustomerType&lt;/font&gt;" style="text;strokeColor=none;fillColor=none;align=left;verticalAlign=top;spacingLeft=4;spacingRight=4;overflow=hidden;rotatable=0;points=[[0,0.5],[1,0.5]];portConstraint=eastwest;whiteSpace=wrap;html=1;" parent="ka6Z36ae_qD6xATqbkND-128" vertex="1">
          <mxGeometry y="74" width="357.5" height="26" as="geometry" />
        </mxCell>
        <mxCell id="ka6Z36ae_qD6xATqbkND-132" value="CustomerTypeServiceImpl" style="swimlane;fontStyle=1;align=center;verticalAlign=top;childLayout=stackLayout;horizontal=1;startSize=30;horizontalStack=0;resizeParent=1;resizeParentMax=0;resizeLast=0;collapsible=1;marginBottom=0;whiteSpace=wrap;html=1;" parent="1" vertex="1">
          <mxGeometry x="310" y="469" width="317.5" height="116" as="geometry">
            <mxRectangle x="400" y="300" width="100" height="30" as="alternateBounds" />
          </mxGeometry>
        </mxCell>
        <mxCell id="ka6Z36ae_qD6xATqbkND-133" value="&lt;span style=&quot;font-size: 10px;&quot;&gt;- customerTypeRepository : CustomerTypeRepository&lt;/span&gt;" style="text;strokeColor=none;fillColor=none;align=left;verticalAlign=top;spacingLeft=4;spacingRight=4;overflow=hidden;rotatable=0;points=[[0,0.5],[1,0.5]];portConstraint=eastwest;whiteSpace=wrap;html=1;" parent="ka6Z36ae_qD6xATqbkND-132" vertex="1">
          <mxGeometry y="30" width="317.5" height="26" as="geometry" />
        </mxCell>
        <mxCell id="ka6Z36ae_qD6xATqbkND-134" value="" style="line;strokeWidth=1;fillColor=none;align=left;verticalAlign=middle;spacingTop=-1;spacingLeft=3;spacingRight=3;rotatable=0;labelPosition=right;points=[];portConstraint=eastwest;strokeColor=inherit;" parent="ka6Z36ae_qD6xATqbkND-132" vertex="1">
          <mxGeometry y="56" width="317.5" height="8" as="geometry" />
        </mxCell>
        <mxCell id="v6R7fs4tptU4WKhiGAcR-10" value="&lt;font style=&quot;font-size: 10px;&quot;&gt;+ findByCustomerTypeId(id: Long) :&amp;nbsp; CustomerType | Null&lt;/font&gt;" style="text;strokeColor=none;fillColor=none;align=left;verticalAlign=top;spacingLeft=4;spacingRight=4;overflow=hidden;rotatable=0;points=[[0,0.5],[1,0.5]];portConstraint=eastwest;whiteSpace=wrap;html=1;" parent="ka6Z36ae_qD6xATqbkND-132" vertex="1">
          <mxGeometry y="64" width="317.5" height="26" as="geometry" />
        </mxCell>
        <mxCell id="v6R7fs4tptU4WKhiGAcR-9" value="&lt;font style=&quot;font-size: 10px;&quot;&gt;+ saveCustomerType(customerType: CustomerType): CustomerType&lt;/font&gt;" style="text;strokeColor=none;fillColor=none;align=left;verticalAlign=top;spacingLeft=4;spacingRight=4;overflow=hidden;rotatable=0;points=[[0,0.5],[1,0.5]];portConstraint=eastwest;whiteSpace=wrap;html=1;" parent="ka6Z36ae_qD6xATqbkND-132" vertex="1">
          <mxGeometry y="90" width="317.5" height="26" as="geometry" />
        </mxCell>
        <mxCell id="ka6Z36ae_qD6xATqbkND-137" value="&lt;span style=&quot;font-weight: normal;&quot;&gt;&lt;i&gt;&amp;lt;&amp;lt;Interface&amp;gt;&amp;gt;&lt;/i&gt;&lt;/span&gt;&lt;br&gt;CustomerTypeRepository&amp;lt;CustomerType, Long&amp;gt;" style="swimlane;fontStyle=1;align=center;verticalAlign=top;childLayout=stackLayout;horizontal=1;startSize=40;horizontalStack=0;resizeParent=1;resizeParentMax=0;resizeLast=0;collapsible=1;marginBottom=0;whiteSpace=wrap;html=1;" parent="1" vertex="1">
          <mxGeometry x="150" y="690" width="290" height="70" as="geometry">
            <mxRectangle x="400" y="300" width="100" height="30" as="alternateBounds" />
          </mxGeometry>
        </mxCell>
        <mxCell id="ka6Z36ae_qD6xATqbkND-138" value="" style="line;strokeWidth=1;fillColor=none;align=left;verticalAlign=middle;spacingTop=-1;spacingLeft=3;spacingRight=3;rotatable=0;labelPosition=right;points=[];portConstraint=eastwest;strokeColor=inherit;" parent="ka6Z36ae_qD6xATqbkND-137" vertex="1">
          <mxGeometry y="40" width="290" height="30" as="geometry" />
        </mxCell>
        <mxCell id="ka6Z36ae_qD6xATqbkND-140" value="Uses" style="endArrow=open;endSize=12;dashed=1;html=1;rounded=0;fontFamily=Helvetica;fontSize=12;fontColor=default;" parent="1" source="ka6Z36ae_qD6xATqbkND-14" target="ka6Z36ae_qD6xATqbkND-81" edge="1">
          <mxGeometry width="160" relative="1" as="geometry">
            <mxPoint x="-529" y="222" as="sourcePoint" />
            <mxPoint x="-280" y="393" as="targetPoint" />
          </mxGeometry>
        </mxCell>
        <mxCell id="ka6Z36ae_qD6xATqbkND-142" value="Uses" style="endArrow=open;endSize=12;dashed=1;html=1;rounded=0;fontFamily=Helvetica;fontSize=12;fontColor=default;" parent="1" source="ka6Z36ae_qD6xATqbkND-128" target="ka6Z36ae_qD6xATqbkND-81" edge="1">
          <mxGeometry width="160" relative="1" as="geometry">
            <mxPoint x="439" y="222" as="sourcePoint" />
            <mxPoint x="219" y="473" as="targetPoint" />
          </mxGeometry>
        </mxCell>
        <mxCell id="ka6Z36ae_qD6xATqbkND-143" value="Uses" style="endArrow=open;endSize=12;dashed=1;html=1;rounded=0;fontFamily=Helvetica;fontSize=12;fontColor=default;" parent="1" source="ka6Z36ae_qD6xATqbkND-132" target="ka6Z36ae_qD6xATqbkND-81" edge="1">
          <mxGeometry width="160" relative="1" as="geometry">
            <mxPoint x="403" y="420" as="sourcePoint" />
            <mxPoint x="260" y="487" as="targetPoint" />
          </mxGeometry>
        </mxCell>
        <mxCell id="ka6Z36ae_qD6xATqbkND-144" value="Uses" style="endArrow=open;endSize=12;dashed=1;html=1;rounded=0;fontFamily=Helvetica;fontSize=12;fontColor=default;" parent="1" source="ka6Z36ae_qD6xATqbkND-137" target="ka6Z36ae_qD6xATqbkND-81" edge="1">
          <mxGeometry width="160" relative="1" as="geometry">
            <mxPoint x="350" y="528" as="sourcePoint" />
            <mxPoint x="260" y="528" as="targetPoint" />
          </mxGeometry>
        </mxCell>
        <mxCell id="ka6Z36ae_qD6xATqbkND-145" value="is" style="endArrow=block;endSize=16;endFill=0;html=1;rounded=0;fontFamily=Helvetica;fontSize=12;fontColor=default;" parent="1" source="ka6Z36ae_qD6xATqbkND-137" target="ka6Z36ae_qD6xATqbkND-119" edge="1">
          <mxGeometry width="160" relative="1" as="geometry">
            <mxPoint x="-490" y="724" as="sourcePoint" />
            <mxPoint x="-110" y="786" as="targetPoint" />
            <Array as="points" />
            <mxPoint as="offset" />
          </mxGeometry>
        </mxCell>
        <mxCell id="v6R7fs4tptU4WKhiGAcR-6" value="has" style="text;html=1;align=center;verticalAlign=middle;resizable=0;points=[];autosize=1;strokeColor=none;fillColor=none;" parent="1" vertex="1">
          <mxGeometry x="-100" y="410" width="40" height="30" as="geometry" />
        </mxCell>
        <mxCell id="v6R7fs4tptU4WKhiGAcR-11" value="" style="endArrow=diamondThin;endFill=1;endSize=24;html=1;rounded=0;fontFamily=Helvetica;fontSize=12;fontColor=default;exitX=0.5;exitY=0;exitDx=0;exitDy=0;" parent="1" source="ka6Z36ae_qD6xATqbkND-128" target="ka6Z36ae_qD6xATqbkND-14" edge="1">
          <mxGeometry width="160" relative="1" as="geometry">
            <mxPoint x="-650" y="290" as="sourcePoint" />
            <mxPoint x="541.25" y="186" as="targetPoint" />
          </mxGeometry>
        </mxCell>
        <mxCell id="v6R7fs4tptU4WKhiGAcR-12" value="" style="endArrow=diamondThin;endFill=1;endSize=24;html=1;rounded=0;fontFamily=Helvetica;fontSize=12;fontColor=default;" parent="1" source="ka6Z36ae_qD6xATqbkND-137" target="ka6Z36ae_qD6xATqbkND-132" edge="1">
          <mxGeometry width="160" relative="1" as="geometry">
            <mxPoint x="-650" y="290" as="sourcePoint" />
            <mxPoint x="-655" y="222" as="targetPoint" />
          </mxGeometry>
        </mxCell>
        <mxCell id="v6R7fs4tptU4WKhiGAcR-13" value="owns" style="text;html=1;align=center;verticalAlign=middle;resizable=0;points=[];autosize=1;strokeColor=none;fillColor=none;" parent="1" vertex="1">
          <mxGeometry x="270" y="218" width="50" height="30" as="geometry" />
        </mxCell>
        <mxCell id="v6R7fs4tptU4WKhiGAcR-14" value="owns" style="text;html=1;align=center;verticalAlign=middle;resizable=0;points=[];autosize=1;strokeColor=none;fillColor=none;" parent="1" vertex="1">
          <mxGeometry x="413" y="640" width="50" height="30" as="geometry" />
        </mxCell>
        <mxCell id="v6R7fs4tptU4WKhiGAcR-15" value="" style="endArrow=block;dashed=1;endFill=0;endSize=12;html=1;rounded=0;fontFamily=Helvetica;fontSize=12;fontColor=default;" parent="1" source="ka6Z36ae_qD6xATqbkND-132" target="ka6Z36ae_qD6xATqbkND-128" edge="1">
          <mxGeometry width="160" relative="1" as="geometry">
            <mxPoint x="-650" y="460" as="sourcePoint" />
            <mxPoint x="-647" y="390" as="targetPoint" />
          </mxGeometry>
        </mxCell>
        <mxCell id="v6R7fs4tptU4WKhiGAcR-16" value="realizes" style="text;html=1;align=center;verticalAlign=middle;resizable=0;points=[];autosize=1;strokeColor=none;fillColor=none;" parent="1" vertex="1">
          <mxGeometry x="470" y="430" width="60" height="30" as="geometry" />
        </mxCell>
      </root>
    </mxGraphModel>
  </diagram>
  <diagram id="DLnlGBXGpjQ_YJxp6MW0" name="Sequence-diagram-update">
    <mxGraphModel dx="2885" dy="799" grid="1" gridSize="10" guides="1" tooltips="1" connect="1" arrows="1" fold="1" page="1" pageScale="1" pageWidth="827" pageHeight="1169" math="0" shadow="0">
      <root>
        <mxCell id="0" />
        <mxCell id="1" parent="0" />
        <mxCell id="mbJux28wP279FDCWI-M8-41" value="" style="verticalLabelPosition=bottom;verticalAlign=top;html=1;shape=mxgraph.basic.rect;fillColor2=none;strokeWidth=1;size=20;indent=5;" parent="1" vertex="1">
          <mxGeometry x="-120" y="10" width="1580" height="820" as="geometry" />
        </mxCell>
        <mxCell id="mbJux28wP279FDCWI-M8-2" value="" style="verticalLabelPosition=bottom;verticalAlign=top;html=1;shape=mxgraph.basic.rect;fillColor2=none;strokeWidth=1;size=20;indent=5;" parent="1" vertex="1">
          <mxGeometry x="-60" y="239" width="1350" height="410" as="geometry" />
        </mxCell>
        <mxCell id="V6vVyVjYL043Y5JLWc7Z-1" value="View" style="rounded=0;whiteSpace=wrap;html=1;" parent="1" vertex="1">
          <mxGeometry x="160" y="40" width="120" height="40" as="geometry" />
        </mxCell>
        <mxCell id="V6vVyVjYL043Y5JLWc7Z-2" value=":EmployeeController" style="rounded=0;whiteSpace=wrap;html=1;" parent="1" vertex="1">
          <mxGeometry x="400" y="40" width="120" height="40" as="geometry" />
        </mxCell>
        <mxCell id="V6vVyVjYL043Y5JLWc7Z-3" value="Database" style="rounded=0;whiteSpace=wrap;html=1;" parent="1" vertex="1">
          <mxGeometry x="1120" y="40" width="120" height="40" as="geometry" />
        </mxCell>
        <mxCell id="V6vVyVjYL043Y5JLWc7Z-4" value=":EmployeeRepository" style="rounded=0;whiteSpace=wrap;html=1;" parent="1" vertex="1">
          <mxGeometry x="880" y="40" width="120" height="40" as="geometry" />
        </mxCell>
        <mxCell id="V6vVyVjYL043Y5JLWc7Z-5" value=":EmployeeService" style="rounded=0;whiteSpace=wrap;html=1;" parent="1" vertex="1">
          <mxGeometry x="640" y="40" width="120" height="40" as="geometry" />
        </mxCell>
        <mxCell id="V6vVyVjYL043Y5JLWc7Z-6" value="User" style="shape=umlActor;verticalLabelPosition=bottom;verticalAlign=top;html=1;outlineConnect=0;" parent="1" vertex="1">
          <mxGeometry x="-20" y="20" width="30" height="60" as="geometry" />
        </mxCell>
        <mxCell id="V6vVyVjYL043Y5JLWc7Z-7" value="" style="rounded=0;whiteSpace=wrap;html=1;" parent="1" vertex="1">
          <mxGeometry x="215" y="99" width="10" height="721" as="geometry" />
        </mxCell>
        <mxCell id="V6vVyVjYL043Y5JLWc7Z-8" value="" style="rounded=0;whiteSpace=wrap;html=1;" parent="1" vertex="1">
          <mxGeometry x="450" y="121" width="10" height="509" as="geometry" />
        </mxCell>
        <mxCell id="V6vVyVjYL043Y5JLWc7Z-11" value="1.1 Click button &quot;Cập nhật thông tin&quot;" style="text;html=1;strokeColor=none;fillColor=none;align=center;verticalAlign=middle;whiteSpace=wrap;rounded=0;" parent="1" vertex="1">
          <mxGeometry x="5" y="121" width="200" height="30" as="geometry" />
        </mxCell>
        <mxCell id="V6vVyVjYL043Y5JLWc7Z-12" value="2.1 findByEmployeeId(id)" style="text;html=1;strokeColor=none;fillColor=none;align=center;verticalAlign=middle;whiteSpace=wrap;rounded=0;" parent="1" vertex="1">
          <mxGeometry x="267" y="122" width="140" height="30" as="geometry" />
        </mxCell>
        <mxCell id="V6vVyVjYL043Y5JLWc7Z-16" value="" style="rounded=0;whiteSpace=wrap;html=1;" parent="1" vertex="1">
          <mxGeometry x="695" y="150" width="10" height="550" as="geometry" />
        </mxCell>
        <mxCell id="V6vVyVjYL043Y5JLWc7Z-17" value="" style="rounded=0;whiteSpace=wrap;html=1;" parent="1" vertex="1">
          <mxGeometry x="1175" y="300" width="10" height="250" as="geometry" />
        </mxCell>
        <mxCell id="V6vVyVjYL043Y5JLWc7Z-35" value="" style="endArrow=classic;html=1;rounded=0;entryX=0.167;entryY=0.067;entryDx=0;entryDy=0;entryPerimeter=0;" parent="1" target="V6vVyVjYL043Y5JLWc7Z-7" edge="1">
          <mxGeometry width="50" height="50" relative="1" as="geometry">
            <mxPoint y="147" as="sourcePoint" />
            <mxPoint x="210" y="160" as="targetPoint" />
          </mxGeometry>
        </mxCell>
        <mxCell id="V6vVyVjYL043Y5JLWc7Z-36" value="" style="endArrow=classic;html=1;rounded=0;entryX=0.154;entryY=0.032;entryDx=0;entryDy=0;entryPerimeter=0;exitX=1.026;exitY=0.053;exitDx=0;exitDy=0;exitPerimeter=0;" parent="1" edge="1">
          <mxGeometry width="50" height="50" relative="1" as="geometry">
            <mxPoint x="225.26000000000022" y="157.21299999999997" as="sourcePoint" />
            <mxPoint x="451.53999999999996" y="157.288" as="targetPoint" />
          </mxGeometry>
        </mxCell>
        <mxCell id="V6vVyVjYL043Y5JLWc7Z-37" value="" style="endArrow=classic;html=1;rounded=0;exitX=1.16;exitY=0.155;exitDx=0;exitDy=0;exitPerimeter=0;entryX=0.094;entryY=0.089;entryDx=0;entryDy=0;entryPerimeter=0;" parent="1" edge="1">
          <mxGeometry width="50" height="50" relative="1" as="geometry">
            <mxPoint x="461.5999999999999" y="214.89499999999998" as="sourcePoint" />
            <mxPoint x="695.94" y="213.95000000000005" as="targetPoint" />
          </mxGeometry>
        </mxCell>
        <mxCell id="V6vVyVjYL043Y5JLWc7Z-75" value="" style="endArrow=none;dashed=1;html=1;rounded=0;entryX=0.5;entryY=1;entryDx=0;entryDy=0;exitX=0.5;exitY=0;exitDx=0;exitDy=0;" parent="1" source="V6vVyVjYL043Y5JLWc7Z-7" target="V6vVyVjYL043Y5JLWc7Z-1" edge="1">
          <mxGeometry width="50" height="50" relative="1" as="geometry">
            <mxPoint x="460" y="360" as="sourcePoint" />
            <mxPoint x="510" y="310" as="targetPoint" />
          </mxGeometry>
        </mxCell>
        <mxCell id="V6vVyVjYL043Y5JLWc7Z-76" value="" style="endArrow=none;dashed=1;html=1;rounded=0;entryX=0.453;entryY=0.958;entryDx=0;entryDy=0;exitX=0.5;exitY=0;exitDx=0;exitDy=0;entryPerimeter=0;" parent="1" source="V6vVyVjYL043Y5JLWc7Z-8" target="V6vVyVjYL043Y5JLWc7Z-2" edge="1">
          <mxGeometry width="50" height="50" relative="1" as="geometry">
            <mxPoint x="454.58000000000004" y="150" as="sourcePoint" />
            <mxPoint x="454.58000000000004" y="110" as="targetPoint" />
          </mxGeometry>
        </mxCell>
        <mxCell id="V6vVyVjYL043Y5JLWc7Z-77" value="" style="endArrow=none;dashed=1;html=1;rounded=0;entryX=0.453;entryY=0.958;entryDx=0;entryDy=0;exitX=0.5;exitY=0;exitDx=0;exitDy=0;entryPerimeter=0;" parent="1" source="V6vVyVjYL043Y5JLWc7Z-16" edge="1">
          <mxGeometry width="50" height="50" relative="1" as="geometry">
            <mxPoint x="700.5" y="162" as="sourcePoint" />
            <mxPoint x="699.5" y="80" as="targetPoint" />
          </mxGeometry>
        </mxCell>
        <mxCell id="V6vVyVjYL043Y5JLWc7Z-78" value="" style="endArrow=none;dashed=1;html=1;rounded=0;entryX=0.5;entryY=1;entryDx=0;entryDy=0;exitX=0.5;exitY=0;exitDx=0;exitDy=0;" parent="1" source="V6vVyVjYL043Y5JLWc7Z-18" target="V6vVyVjYL043Y5JLWc7Z-4" edge="1">
          <mxGeometry width="50" height="50" relative="1" as="geometry">
            <mxPoint x="940.08" y="240" as="sourcePoint" />
            <mxPoint x="939.58" y="120" as="targetPoint" />
          </mxGeometry>
        </mxCell>
        <mxCell id="V6vVyVjYL043Y5JLWc7Z-79" value="" style="endArrow=none;dashed=1;html=1;rounded=0;entryX=0.5;entryY=1;entryDx=0;entryDy=0;exitX=0.5;exitY=0;exitDx=0;exitDy=0;" parent="1" source="V6vVyVjYL043Y5JLWc7Z-17" edge="1">
          <mxGeometry width="50" height="50" relative="1" as="geometry">
            <mxPoint x="1179.66" y="240" as="sourcePoint" />
            <mxPoint x="1179.58" y="80" as="targetPoint" />
          </mxGeometry>
        </mxCell>
        <mxCell id="V6vVyVjYL043Y5JLWc7Z-80" value="" style="endArrow=none;dashed=1;html=1;rounded=0;entryX=0.5;entryY=1;entryDx=0;entryDy=0;" parent="1" edge="1">
          <mxGeometry width="50" height="50" relative="1" as="geometry">
            <mxPoint x="219" y="880" as="sourcePoint" />
            <mxPoint x="219.41" y="820" as="targetPoint" />
          </mxGeometry>
        </mxCell>
        <mxCell id="V6vVyVjYL043Y5JLWc7Z-81" value="" style="endArrow=none;dashed=1;html=1;rounded=0;entryX=0.5;entryY=1;entryDx=0;entryDy=0;" parent="1" edge="1">
          <mxGeometry width="50" height="50" relative="1" as="geometry">
            <mxPoint x="454" y="880" as="sourcePoint" />
            <mxPoint x="454.40999999999997" y="630" as="targetPoint" />
          </mxGeometry>
        </mxCell>
        <mxCell id="V6vVyVjYL043Y5JLWc7Z-82" value="" style="endArrow=none;dashed=1;html=1;rounded=0;entryX=0.5;entryY=1;entryDx=0;entryDy=0;" parent="1" edge="1">
          <mxGeometry width="50" height="50" relative="1" as="geometry">
            <mxPoint x="700" y="880" as="sourcePoint" />
            <mxPoint x="699.7599999999999" y="700" as="targetPoint" />
          </mxGeometry>
        </mxCell>
        <mxCell id="V6vVyVjYL043Y5JLWc7Z-83" value="" style="endArrow=none;dashed=1;html=1;rounded=0;entryX=0.5;entryY=1;entryDx=0;entryDy=0;" parent="1" edge="1">
          <mxGeometry width="50" height="50" relative="1" as="geometry">
            <mxPoint x="940" y="880" as="sourcePoint" />
            <mxPoint x="939.66" y="480" as="targetPoint" />
          </mxGeometry>
        </mxCell>
        <mxCell id="V6vVyVjYL043Y5JLWc7Z-84" value="" style="endArrow=none;dashed=1;html=1;rounded=0;" parent="1" edge="1">
          <mxGeometry width="50" height="50" relative="1" as="geometry">
            <mxPoint x="1180" y="880" as="sourcePoint" />
            <mxPoint x="1180" y="550" as="targetPoint" />
          </mxGeometry>
        </mxCell>
        <mxCell id="p_DyIoB3y-KGod4eIC5k-1" value="3. saveEmployee(employee)" style="text;html=1;strokeColor=none;fillColor=none;align=center;verticalAlign=middle;whiteSpace=wrap;rounded=0;" parent="1" vertex="1">
          <mxGeometry x="490" y="181" width="170" height="30" as="geometry" />
        </mxCell>
        <mxCell id="p_DyIoB3y-KGod4eIC5k-4" value="" style="endArrow=classic;html=1;rounded=0;entryX=0.5;entryY=0.059;entryDx=0;entryDy=0;entryPerimeter=0;" parent="1" edge="1">
          <mxGeometry width="50" height="50" relative="1" as="geometry">
            <mxPoint y="190" as="sourcePoint" />
            <mxPoint x="215" y="190" as="targetPoint" />
          </mxGeometry>
        </mxCell>
        <mxCell id="p_DyIoB3y-KGod4eIC5k-5" value="1.2 Click button &quot;Đồng ý&quot;" style="text;html=1;strokeColor=none;fillColor=none;align=center;verticalAlign=middle;whiteSpace=wrap;rounded=0;" parent="1" vertex="1">
          <mxGeometry x="5" y="160" width="200" height="30" as="geometry" />
        </mxCell>
        <mxCell id="p_DyIoB3y-KGod4eIC5k-6" value="" style="endArrow=classic;html=1;rounded=0;exitX=1.007;exitY=0.105;exitDx=0;exitDy=0;exitPerimeter=0;entryX=-0.203;entryY=0.106;entryDx=0;entryDy=0;entryPerimeter=0;" parent="1" edge="1">
          <mxGeometry width="50" height="50" relative="1" as="geometry">
            <mxPoint x="225.06999999999994" y="201.70499999999998" as="sourcePoint" />
            <mxPoint x="447.97" y="201.954" as="targetPoint" />
          </mxGeometry>
        </mxCell>
        <mxCell id="p_DyIoB3y-KGod4eIC5k-7" value="2.2 saveEmployee(employee)" style="text;html=1;strokeColor=none;fillColor=none;align=center;verticalAlign=middle;whiteSpace=wrap;rounded=0;" parent="1" vertex="1">
          <mxGeometry x="264" y="165" width="160" height="30" as="geometry" />
        </mxCell>
        <mxCell id="mbJux28wP279FDCWI-M8-1" value="" style="endArrow=none;dashed=1;html=1;rounded=0;entryX=0.5;entryY=1;entryDx=0;entryDy=0;exitX=0.5;exitY=0;exitDx=0;exitDy=0;" parent="1" target="V6vVyVjYL043Y5JLWc7Z-18" edge="1">
          <mxGeometry width="50" height="50" relative="1" as="geometry">
            <mxPoint x="940.08" y="240" as="sourcePoint" />
            <mxPoint x="940" y="80" as="targetPoint" />
          </mxGeometry>
        </mxCell>
        <mxCell id="V6vVyVjYL043Y5JLWc7Z-18" value="" style="rounded=0;whiteSpace=wrap;html=1;" parent="1" vertex="1">
          <mxGeometry x="935" y="300" width="10" height="250" as="geometry" />
        </mxCell>
        <mxCell id="mbJux28wP279FDCWI-M8-3" value="" style="endArrow=none;html=1;rounded=0;" parent="1" edge="1">
          <mxGeometry width="50" height="50" relative="1" as="geometry">
            <mxPoint x="-60" y="310" as="sourcePoint" />
            <mxPoint x="110" y="310" as="targetPoint" />
          </mxGeometry>
        </mxCell>
        <mxCell id="mbJux28wP279FDCWI-M8-6" value="" style="endArrow=none;html=1;rounded=0;" parent="1" edge="1">
          <mxGeometry width="50" height="50" relative="1" as="geometry">
            <mxPoint x="110" y="310" as="sourcePoint" />
            <mxPoint x="130" y="240" as="targetPoint" />
            <Array as="points">
              <mxPoint x="130" y="290" />
            </Array>
          </mxGeometry>
        </mxCell>
        <mxCell id="mbJux28wP279FDCWI-M8-7" value="alt validate info employee" style="text;html=1;strokeColor=none;fillColor=none;align=center;verticalAlign=middle;whiteSpace=wrap;rounded=0;" parent="1" vertex="1">
          <mxGeometry x="-60" y="260" width="190" height="30" as="geometry" />
        </mxCell>
        <mxCell id="mbJux28wP279FDCWI-M8-10" value="4.1 Return invalid view()" style="text;html=1;strokeColor=none;fillColor=none;align=center;verticalAlign=middle;whiteSpace=wrap;rounded=0;" parent="1" vertex="1">
          <mxGeometry x="502.5" y="310" width="145" height="30" as="geometry" />
        </mxCell>
        <mxCell id="mbJux28wP279FDCWI-M8-12" value="4.2 Return invalid view()" style="text;html=1;strokeColor=none;fillColor=none;align=center;verticalAlign=middle;whiteSpace=wrap;rounded=0;" parent="1" vertex="1">
          <mxGeometry x="262" y="340" width="145" height="30" as="geometry" />
        </mxCell>
        <mxCell id="mbJux28wP279FDCWI-M8-8" value="[invalid info]" style="text;html=1;strokeColor=none;fillColor=none;align=center;verticalAlign=middle;whiteSpace=wrap;rounded=0;" parent="1" vertex="1">
          <mxGeometry x="-20" y="340" width="120" height="30" as="geometry" />
        </mxCell>
        <mxCell id="mbJux28wP279FDCWI-M8-14" value="" style="endArrow=classic;html=1;rounded=0;exitX=1.318;exitY=0.477;exitDx=0;exitDy=0;exitPerimeter=0;entryX=0.124;entryY=0.448;entryDx=0;entryDy=0;entryPerimeter=0;" parent="1" edge="1">
          <mxGeometry width="50" height="50" relative="1" as="geometry">
            <mxPoint x="708.1799999999998" y="405.3499999999999" as="sourcePoint" />
            <mxPoint x="936.2399999999998" y="405" as="targetPoint" />
          </mxGeometry>
        </mxCell>
        <mxCell id="mbJux28wP279FDCWI-M8-16" value="" style="endArrow=classic;html=1;rounded=0;exitX=1;exitY=0.5;exitDx=0;exitDy=0;entryX=0;entryY=0.5;entryDx=0;entryDy=0;" parent="1" source="V6vVyVjYL043Y5JLWc7Z-18" target="V6vVyVjYL043Y5JLWc7Z-17" edge="1">
          <mxGeometry width="50" height="50" relative="1" as="geometry">
            <mxPoint x="718" y="422" as="sourcePoint" />
            <mxPoint x="946" y="422" as="targetPoint" />
          </mxGeometry>
        </mxCell>
        <mxCell id="mbJux28wP279FDCWI-M8-17" value="6. executeUpdate()" style="text;html=1;strokeColor=none;fillColor=none;align=center;verticalAlign=middle;whiteSpace=wrap;rounded=0;" parent="1" vertex="1">
          <mxGeometry x="980" y="390" width="170" height="30" as="geometry" />
        </mxCell>
        <mxCell id="mbJux28wP279FDCWI-M8-19" value="7. Return result" style="text;html=1;strokeColor=none;fillColor=none;align=center;verticalAlign=middle;whiteSpace=wrap;rounded=0;" parent="1" vertex="1">
          <mxGeometry x="980" y="444.5" width="170" height="30" as="geometry" />
        </mxCell>
        <mxCell id="mbJux28wP279FDCWI-M8-21" value="8. Return result" style="text;html=1;strokeColor=none;fillColor=none;align=center;verticalAlign=middle;whiteSpace=wrap;rounded=0;" parent="1" vertex="1">
          <mxGeometry x="740" y="478" width="170" height="30" as="geometry" />
        </mxCell>
        <mxCell id="mbJux28wP279FDCWI-M8-23" value="9. Return result" style="text;html=1;strokeColor=none;fillColor=none;align=center;verticalAlign=middle;whiteSpace=wrap;rounded=0;" parent="1" vertex="1">
          <mxGeometry x="490" y="500" width="170" height="30" as="geometry" />
        </mxCell>
        <mxCell id="mbJux28wP279FDCWI-M8-29" value="" style="html=1;verticalAlign=bottom;endArrow=open;dashed=1;endSize=8;elbow=horizontal;rounded=0;entryX=0.783;entryY=0.385;entryDx=0;entryDy=0;entryPerimeter=0;exitX=0.003;exitY=0.5;exitDx=0;exitDy=0;exitPerimeter=0;" parent="1" source="V6vVyVjYL043Y5JLWc7Z-8" target="V6vVyVjYL043Y5JLWc7Z-7" edge="1">
          <mxGeometry relative="1" as="geometry">
            <mxPoint x="305" y="380" as="sourcePoint" />
            <mxPoint x="230" y="376" as="targetPoint" />
          </mxGeometry>
        </mxCell>
        <mxCell id="mbJux28wP279FDCWI-M8-30" value="" style="html=1;verticalAlign=bottom;endArrow=open;dashed=1;endSize=8;elbow=horizontal;rounded=0;entryX=0.783;entryY=0.385;entryDx=0;entryDy=0;entryPerimeter=0;" parent="1" edge="1">
          <mxGeometry relative="1" as="geometry">
            <mxPoint x="690" y="351" as="sourcePoint" />
            <mxPoint x="460" y="351" as="targetPoint" />
          </mxGeometry>
        </mxCell>
        <mxCell id="mbJux28wP279FDCWI-M8-31" value="" style="html=1;verticalAlign=bottom;endArrow=open;dashed=1;endSize=8;elbow=horizontal;rounded=0;entryX=0.783;entryY=0.385;entryDx=0;entryDy=0;entryPerimeter=0;" parent="1" edge="1">
          <mxGeometry relative="1" as="geometry">
            <mxPoint x="1175" y="476.82" as="sourcePoint" />
            <mxPoint x="945" y="476.82" as="targetPoint" />
          </mxGeometry>
        </mxCell>
        <mxCell id="mbJux28wP279FDCWI-M8-32" value="" style="html=1;verticalAlign=bottom;endArrow=open;dashed=1;endSize=8;elbow=horizontal;rounded=0;entryX=0.783;entryY=0.385;entryDx=0;entryDy=0;entryPerimeter=0;" parent="1" edge="1">
          <mxGeometry relative="1" as="geometry">
            <mxPoint x="935" y="508" as="sourcePoint" />
            <mxPoint x="705" y="508" as="targetPoint" />
          </mxGeometry>
        </mxCell>
        <mxCell id="mbJux28wP279FDCWI-M8-33" value="" style="html=1;verticalAlign=bottom;endArrow=open;dashed=1;endSize=8;elbow=horizontal;rounded=0;entryX=0.783;entryY=0.385;entryDx=0;entryDy=0;entryPerimeter=0;exitX=0.5;exitY=0.709;exitDx=0;exitDy=0;exitPerimeter=0;" parent="1" source="V6vVyVjYL043Y5JLWc7Z-16" edge="1">
          <mxGeometry relative="1" as="geometry">
            <mxPoint x="690" y="540" as="sourcePoint" />
            <mxPoint x="460" y="540" as="targetPoint" />
          </mxGeometry>
        </mxCell>
        <mxCell id="mbJux28wP279FDCWI-M8-34" value="" style="html=1;verticalAlign=bottom;endArrow=open;dashed=1;endSize=8;elbow=horizontal;rounded=0;entryX=0.783;entryY=0.385;entryDx=0;entryDy=0;entryPerimeter=0;" parent="1" edge="1">
          <mxGeometry relative="1" as="geometry">
            <mxPoint x="450" y="567" as="sourcePoint" />
            <mxPoint x="225" y="567" as="targetPoint" />
          </mxGeometry>
        </mxCell>
        <mxCell id="mbJux28wP279FDCWI-M8-35" value="" style="html=1;verticalAlign=bottom;endArrow=open;dashed=1;endSize=8;elbow=horizontal;rounded=0;" parent="1" edge="1">
          <mxGeometry relative="1" as="geometry">
            <mxPoint y="110" as="sourcePoint" />
            <mxPoint y="800" as="targetPoint" />
          </mxGeometry>
        </mxCell>
        <mxCell id="mbJux28wP279FDCWI-M8-36" value="" style="html=1;verticalAlign=bottom;endArrow=open;dashed=1;endSize=8;elbow=horizontal;rounded=0;entryX=0.783;entryY=0.385;entryDx=0;entryDy=0;entryPerimeter=0;" parent="1" edge="1">
          <mxGeometry relative="1" as="geometry">
            <mxPoint x="210" y="700" as="sourcePoint" />
            <mxPoint y="700" as="targetPoint" />
          </mxGeometry>
        </mxCell>
        <mxCell id="mbJux28wP279FDCWI-M8-37" value="11.2 Display message create" style="text;html=1;strokeColor=none;fillColor=none;align=center;verticalAlign=middle;whiteSpace=wrap;rounded=0;" parent="1" vertex="1">
          <mxGeometry x="20" y="670" width="170" height="30" as="geometry" />
        </mxCell>
        <mxCell id="mbJux28wP279FDCWI-M8-39" value="" style="endArrow=none;dashed=1;html=1;rounded=0;entryX=0.001;entryY=0.501;entryDx=0;entryDy=0;entryPerimeter=0;strokeWidth=2;" parent="1" edge="1">
          <mxGeometry width="50" height="50" relative="1" as="geometry">
            <mxPoint x="1290" y="441.2877697841725" as="sourcePoint" />
            <mxPoint x="-58.65000000000009" y="451.40999999999985" as="targetPoint" />
          </mxGeometry>
        </mxCell>
        <mxCell id="mbJux28wP279FDCWI-M8-40" value="[invalid info]" style="text;html=1;strokeColor=none;fillColor=none;align=center;verticalAlign=middle;whiteSpace=wrap;rounded=0;" parent="1" vertex="1">
          <mxGeometry x="-25" y="520" width="120" height="30" as="geometry" />
        </mxCell>
        <mxCell id="WXt9QpTXKPiGNQsLJFwL-1" value="5. saveEmployee(employee)" style="text;html=1;strokeColor=none;fillColor=none;align=center;verticalAlign=middle;whiteSpace=wrap;rounded=0;" parent="1" vertex="1">
          <mxGeometry x="740" y="370" width="170" height="30" as="geometry" />
        </mxCell>
        <mxCell id="-SzXrTMMwev-RJUtVeAG-1" value="10. Return invalid view" style="text;html=1;strokeColor=none;fillColor=none;align=center;verticalAlign=middle;whiteSpace=wrap;rounded=0;" vertex="1" parent="1">
          <mxGeometry x="252" y="530" width="170" height="30" as="geometry" />
        </mxCell>
      </root>
    </mxGraphModel>
  </diagram>
  <diagram id="PRlwiBTcKX_tUIIA0DmA" name="Sequence-diagram-change password">
    <mxGraphModel dx="2329" dy="583" grid="1" gridSize="10" guides="1" tooltips="1" connect="1" arrows="1" fold="1" page="1" pageScale="1" pageWidth="827" pageHeight="1169" math="0" shadow="0">
      <root>
        <mxCell id="0" />
        <mxCell id="1" parent="0" />
        <mxCell id="6hqRJWpmA8yc5q9J2oQH-4" value="" style="rounded=0;whiteSpace=wrap;html=1;strokeWidth=2;" parent="1" vertex="1">
          <mxGeometry x="-50" y="290" width="1300" height="350" as="geometry" />
        </mxCell>
        <mxCell id="6hqRJWpmA8yc5q9J2oQH-3" value="" style="rounded=0;whiteSpace=wrap;html=1;" parent="1" vertex="1">
          <mxGeometry x="-90" y="270" width="1360" height="370" as="geometry" />
        </mxCell>
        <mxCell id="pzIHiIn0vkqSjCpnbAeS-1" value="" style="verticalLabelPosition=bottom;verticalAlign=top;html=1;shape=mxgraph.basic.rect;fillColor2=none;strokeWidth=1;size=20;indent=5;" parent="1" vertex="1">
          <mxGeometry x="-120" y="10" width="1580" height="820" as="geometry" />
        </mxCell>
        <mxCell id="pzIHiIn0vkqSjCpnbAeS-3" value="View" style="rounded=0;whiteSpace=wrap;html=1;" parent="1" vertex="1">
          <mxGeometry x="160" y="40" width="120" height="40" as="geometry" />
        </mxCell>
        <mxCell id="pzIHiIn0vkqSjCpnbAeS-4" value=":AccountController" style="rounded=0;whiteSpace=wrap;html=1;" parent="1" vertex="1">
          <mxGeometry x="400" y="40" width="120" height="40" as="geometry" />
        </mxCell>
        <mxCell id="pzIHiIn0vkqSjCpnbAeS-5" value="Database" style="rounded=0;whiteSpace=wrap;html=1;" parent="1" vertex="1">
          <mxGeometry x="1120" y="40" width="120" height="40" as="geometry" />
        </mxCell>
        <mxCell id="pzIHiIn0vkqSjCpnbAeS-6" value=":AccountRepository" style="rounded=0;whiteSpace=wrap;html=1;" parent="1" vertex="1">
          <mxGeometry x="880" y="40" width="120" height="40" as="geometry" />
        </mxCell>
        <mxCell id="pzIHiIn0vkqSjCpnbAeS-7" value=":AccountService" style="rounded=0;whiteSpace=wrap;html=1;" parent="1" vertex="1">
          <mxGeometry x="640" y="40" width="120" height="40" as="geometry" />
        </mxCell>
        <mxCell id="pzIHiIn0vkqSjCpnbAeS-8" value="User/Admin" style="shape=umlActor;verticalLabelPosition=bottom;verticalAlign=top;html=1;outlineConnect=0;" parent="1" vertex="1">
          <mxGeometry x="-20" y="20" width="30" height="60" as="geometry" />
        </mxCell>
        <mxCell id="pzIHiIn0vkqSjCpnbAeS-9" value="" style="rounded=0;whiteSpace=wrap;html=1;" parent="1" vertex="1">
          <mxGeometry x="215" y="99" width="10" height="721" as="geometry" />
        </mxCell>
        <mxCell id="pzIHiIn0vkqSjCpnbAeS-10" value="" style="rounded=0;whiteSpace=wrap;html=1;" parent="1" vertex="1">
          <mxGeometry x="450" y="121" width="10" height="509" as="geometry" />
        </mxCell>
        <mxCell id="pzIHiIn0vkqSjCpnbAeS-11" value="1.1 Click button &quot;Thay đổi mật khẩu&quot;" style="text;html=1;strokeColor=none;fillColor=none;align=center;verticalAlign=middle;whiteSpace=wrap;rounded=0;" parent="1" vertex="1">
          <mxGeometry x="5" y="121" width="200" height="30" as="geometry" />
        </mxCell>
        <mxCell id="pzIHiIn0vkqSjCpnbAeS-12" value="2.1 findByAccountId(id)" style="text;html=1;strokeColor=none;fillColor=none;align=center;verticalAlign=middle;whiteSpace=wrap;rounded=0;" parent="1" vertex="1">
          <mxGeometry x="257" y="129" width="140" height="30" as="geometry" />
        </mxCell>
        <mxCell id="pzIHiIn0vkqSjCpnbAeS-13" value="" style="rounded=0;whiteSpace=wrap;html=1;" parent="1" vertex="1">
          <mxGeometry x="695" y="150" width="10" height="550" as="geometry" />
        </mxCell>
        <mxCell id="pzIHiIn0vkqSjCpnbAeS-14" value="" style="rounded=0;whiteSpace=wrap;html=1;" parent="1" vertex="1">
          <mxGeometry x="1175" y="300" width="10" height="250" as="geometry" />
        </mxCell>
        <mxCell id="pzIHiIn0vkqSjCpnbAeS-15" value="" style="endArrow=classic;html=1;rounded=0;entryX=0.167;entryY=0.067;entryDx=0;entryDy=0;entryPerimeter=0;" parent="1" target="pzIHiIn0vkqSjCpnbAeS-9" edge="1">
          <mxGeometry width="50" height="50" relative="1" as="geometry">
            <mxPoint y="147" as="sourcePoint" />
            <mxPoint x="210" y="160" as="targetPoint" />
          </mxGeometry>
        </mxCell>
        <mxCell id="pzIHiIn0vkqSjCpnbAeS-16" value="" style="endArrow=classic;html=1;rounded=0;entryX=0.154;entryY=0.032;entryDx=0;entryDy=0;entryPerimeter=0;exitX=1.026;exitY=0.053;exitDx=0;exitDy=0;exitPerimeter=0;" parent="1" edge="1">
          <mxGeometry width="50" height="50" relative="1" as="geometry">
            <mxPoint x="225.26000000000022" y="159.21299999999997" as="sourcePoint" />
            <mxPoint x="451.53999999999996" y="159.288" as="targetPoint" />
          </mxGeometry>
        </mxCell>
        <mxCell id="pzIHiIn0vkqSjCpnbAeS-17" value="" style="endArrow=classic;html=1;rounded=0;exitX=1.16;exitY=0.155;exitDx=0;exitDy=0;exitPerimeter=0;entryX=0.094;entryY=0.089;entryDx=0;entryDy=0;entryPerimeter=0;" parent="1" edge="1">
          <mxGeometry width="50" height="50" relative="1" as="geometry">
            <mxPoint x="461.5999999999999" y="214.89499999999998" as="sourcePoint" />
            <mxPoint x="695.94" y="213.95000000000005" as="targetPoint" />
          </mxGeometry>
        </mxCell>
        <mxCell id="pzIHiIn0vkqSjCpnbAeS-18" value="" style="endArrow=none;dashed=1;html=1;rounded=0;entryX=0.5;entryY=1;entryDx=0;entryDy=0;exitX=0.5;exitY=0;exitDx=0;exitDy=0;" parent="1" source="pzIHiIn0vkqSjCpnbAeS-9" target="pzIHiIn0vkqSjCpnbAeS-3" edge="1">
          <mxGeometry width="50" height="50" relative="1" as="geometry">
            <mxPoint x="460" y="360" as="sourcePoint" />
            <mxPoint x="510" y="310" as="targetPoint" />
          </mxGeometry>
        </mxCell>
        <mxCell id="pzIHiIn0vkqSjCpnbAeS-19" value="" style="endArrow=none;dashed=1;html=1;rounded=0;entryX=0.453;entryY=0.958;entryDx=0;entryDy=0;exitX=0.5;exitY=0;exitDx=0;exitDy=0;entryPerimeter=0;" parent="1" source="pzIHiIn0vkqSjCpnbAeS-10" target="pzIHiIn0vkqSjCpnbAeS-4" edge="1">
          <mxGeometry width="50" height="50" relative="1" as="geometry">
            <mxPoint x="454.58000000000004" y="150" as="sourcePoint" />
            <mxPoint x="454.58000000000004" y="110" as="targetPoint" />
          </mxGeometry>
        </mxCell>
        <mxCell id="pzIHiIn0vkqSjCpnbAeS-20" value="" style="endArrow=none;dashed=1;html=1;rounded=0;entryX=0.453;entryY=0.958;entryDx=0;entryDy=0;exitX=0.5;exitY=0;exitDx=0;exitDy=0;entryPerimeter=0;" parent="1" source="pzIHiIn0vkqSjCpnbAeS-13" edge="1">
          <mxGeometry width="50" height="50" relative="1" as="geometry">
            <mxPoint x="700.5" y="162" as="sourcePoint" />
            <mxPoint x="699.5" y="80" as="targetPoint" />
          </mxGeometry>
        </mxCell>
        <mxCell id="pzIHiIn0vkqSjCpnbAeS-21" value="" style="endArrow=none;dashed=1;html=1;rounded=0;entryX=0.5;entryY=1;entryDx=0;entryDy=0;exitX=0.5;exitY=0;exitDx=0;exitDy=0;" parent="1" source="pzIHiIn0vkqSjCpnbAeS-34" target="pzIHiIn0vkqSjCpnbAeS-6" edge="1">
          <mxGeometry width="50" height="50" relative="1" as="geometry">
            <mxPoint x="940.08" y="240" as="sourcePoint" />
            <mxPoint x="939.58" y="120" as="targetPoint" />
          </mxGeometry>
        </mxCell>
        <mxCell id="pzIHiIn0vkqSjCpnbAeS-22" value="" style="endArrow=none;dashed=1;html=1;rounded=0;entryX=0.5;entryY=1;entryDx=0;entryDy=0;exitX=0.5;exitY=0;exitDx=0;exitDy=0;" parent="1" source="pzIHiIn0vkqSjCpnbAeS-14" edge="1">
          <mxGeometry width="50" height="50" relative="1" as="geometry">
            <mxPoint x="1179.66" y="240" as="sourcePoint" />
            <mxPoint x="1179.58" y="80" as="targetPoint" />
          </mxGeometry>
        </mxCell>
        <mxCell id="pzIHiIn0vkqSjCpnbAeS-23" value="" style="endArrow=none;dashed=1;html=1;rounded=0;entryX=0.5;entryY=1;entryDx=0;entryDy=0;" parent="1" edge="1">
          <mxGeometry width="50" height="50" relative="1" as="geometry">
            <mxPoint x="219" y="880" as="sourcePoint" />
            <mxPoint x="219.41" y="820" as="targetPoint" />
          </mxGeometry>
        </mxCell>
        <mxCell id="pzIHiIn0vkqSjCpnbAeS-24" value="" style="endArrow=none;dashed=1;html=1;rounded=0;entryX=0.5;entryY=1;entryDx=0;entryDy=0;" parent="1" edge="1">
          <mxGeometry width="50" height="50" relative="1" as="geometry">
            <mxPoint x="454" y="880" as="sourcePoint" />
            <mxPoint x="454.40999999999997" y="630" as="targetPoint" />
          </mxGeometry>
        </mxCell>
        <mxCell id="pzIHiIn0vkqSjCpnbAeS-25" value="" style="endArrow=none;dashed=1;html=1;rounded=0;entryX=0.5;entryY=1;entryDx=0;entryDy=0;" parent="1" edge="1">
          <mxGeometry width="50" height="50" relative="1" as="geometry">
            <mxPoint x="700" y="880" as="sourcePoint" />
            <mxPoint x="699.7599999999999" y="700" as="targetPoint" />
          </mxGeometry>
        </mxCell>
        <mxCell id="pzIHiIn0vkqSjCpnbAeS-26" value="" style="endArrow=none;dashed=1;html=1;rounded=0;entryX=0.5;entryY=1;entryDx=0;entryDy=0;" parent="1" edge="1">
          <mxGeometry width="50" height="50" relative="1" as="geometry">
            <mxPoint x="940" y="880" as="sourcePoint" />
            <mxPoint x="939.66" y="480" as="targetPoint" />
          </mxGeometry>
        </mxCell>
        <mxCell id="pzIHiIn0vkqSjCpnbAeS-27" value="" style="endArrow=none;dashed=1;html=1;rounded=0;" parent="1" edge="1">
          <mxGeometry width="50" height="50" relative="1" as="geometry">
            <mxPoint x="1180" y="880" as="sourcePoint" />
            <mxPoint x="1180" y="550" as="targetPoint" />
          </mxGeometry>
        </mxCell>
        <mxCell id="pzIHiIn0vkqSjCpnbAeS-29" value="" style="endArrow=classic;html=1;rounded=0;entryX=0.5;entryY=0.059;entryDx=0;entryDy=0;entryPerimeter=0;" parent="1" edge="1">
          <mxGeometry width="50" height="50" relative="1" as="geometry">
            <mxPoint y="190" as="sourcePoint" />
            <mxPoint x="215" y="190" as="targetPoint" />
          </mxGeometry>
        </mxCell>
        <mxCell id="pzIHiIn0vkqSjCpnbAeS-30" value="1.2 Click button &quot;Đồng ý&quot;" style="text;html=1;strokeColor=none;fillColor=none;align=center;verticalAlign=middle;whiteSpace=wrap;rounded=0;" parent="1" vertex="1">
          <mxGeometry x="5" y="160" width="200" height="30" as="geometry" />
        </mxCell>
        <mxCell id="pzIHiIn0vkqSjCpnbAeS-31" value="" style="endArrow=classic;html=1;rounded=0;exitX=1.007;exitY=0.105;exitDx=0;exitDy=0;exitPerimeter=0;entryX=-0.203;entryY=0.106;entryDx=0;entryDy=0;entryPerimeter=0;" parent="1" edge="1">
          <mxGeometry width="50" height="50" relative="1" as="geometry">
            <mxPoint x="225.06999999999994" y="200.70499999999998" as="sourcePoint" />
            <mxPoint x="447.97" y="200.954" as="targetPoint" />
          </mxGeometry>
        </mxCell>
        <mxCell id="pzIHiIn0vkqSjCpnbAeS-32" value="2.2 saveAccount(account)" style="text;html=1;strokeColor=none;fillColor=none;align=center;verticalAlign=middle;whiteSpace=wrap;rounded=0;" parent="1" vertex="1">
          <mxGeometry x="264" y="165" width="160" height="30" as="geometry" />
        </mxCell>
        <mxCell id="pzIHiIn0vkqSjCpnbAeS-33" value="" style="endArrow=none;dashed=1;html=1;rounded=0;entryX=0.5;entryY=1;entryDx=0;entryDy=0;exitX=0.5;exitY=0;exitDx=0;exitDy=0;" parent="1" target="pzIHiIn0vkqSjCpnbAeS-34" edge="1">
          <mxGeometry width="50" height="50" relative="1" as="geometry">
            <mxPoint x="940.08" y="240" as="sourcePoint" />
            <mxPoint x="940" y="80" as="targetPoint" />
          </mxGeometry>
        </mxCell>
        <mxCell id="pzIHiIn0vkqSjCpnbAeS-34" value="" style="rounded=0;whiteSpace=wrap;html=1;" parent="1" vertex="1">
          <mxGeometry x="935" y="300" width="10" height="250" as="geometry" />
        </mxCell>
        <mxCell id="pzIHiIn0vkqSjCpnbAeS-41" value="" style="endArrow=classic;html=1;rounded=0;exitX=1.318;exitY=0.477;exitDx=0;exitDy=0;exitPerimeter=0;entryX=0.124;entryY=0.448;entryDx=0;entryDy=0;entryPerimeter=0;" parent="1" edge="1">
          <mxGeometry width="50" height="50" relative="1" as="geometry">
            <mxPoint x="708.1799999999998" y="405.3499999999999" as="sourcePoint" />
            <mxPoint x="936.2399999999998" y="405" as="targetPoint" />
          </mxGeometry>
        </mxCell>
        <mxCell id="pzIHiIn0vkqSjCpnbAeS-43" value="" style="endArrow=classic;html=1;rounded=0;exitX=1;exitY=0.5;exitDx=0;exitDy=0;entryX=0;entryY=0.5;entryDx=0;entryDy=0;" parent="1" source="pzIHiIn0vkqSjCpnbAeS-34" target="pzIHiIn0vkqSjCpnbAeS-14" edge="1">
          <mxGeometry width="50" height="50" relative="1" as="geometry">
            <mxPoint x="718" y="422" as="sourcePoint" />
            <mxPoint x="946" y="422" as="targetPoint" />
          </mxGeometry>
        </mxCell>
        <mxCell id="pzIHiIn0vkqSjCpnbAeS-44" value="6. executeUpdate()" style="text;html=1;strokeColor=none;fillColor=none;align=center;verticalAlign=middle;whiteSpace=wrap;rounded=0;" parent="1" vertex="1">
          <mxGeometry x="980" y="390" width="170" height="30" as="geometry" />
        </mxCell>
        <mxCell id="pzIHiIn0vkqSjCpnbAeS-45" value="7. Return result" style="text;html=1;strokeColor=none;fillColor=none;align=center;verticalAlign=middle;whiteSpace=wrap;rounded=0;" parent="1" vertex="1">
          <mxGeometry x="980" y="444.5" width="170" height="30" as="geometry" />
        </mxCell>
        <mxCell id="pzIHiIn0vkqSjCpnbAeS-46" value="8. Return result" style="text;html=1;strokeColor=none;fillColor=none;align=center;verticalAlign=middle;whiteSpace=wrap;rounded=0;" parent="1" vertex="1">
          <mxGeometry x="740" y="478" width="170" height="30" as="geometry" />
        </mxCell>
        <mxCell id="pzIHiIn0vkqSjCpnbAeS-50" value="" style="html=1;verticalAlign=bottom;endArrow=open;dashed=1;endSize=8;elbow=horizontal;rounded=0;entryX=0.783;entryY=0.385;entryDx=0;entryDy=0;entryPerimeter=0;" parent="1" edge="1">
          <mxGeometry relative="1" as="geometry">
            <mxPoint x="690" y="351" as="sourcePoint" />
            <mxPoint x="460" y="351" as="targetPoint" />
          </mxGeometry>
        </mxCell>
        <mxCell id="pzIHiIn0vkqSjCpnbAeS-51" value="" style="html=1;verticalAlign=bottom;endArrow=open;dashed=1;endSize=8;elbow=horizontal;rounded=0;entryX=0.783;entryY=0.385;entryDx=0;entryDy=0;entryPerimeter=0;" parent="1" edge="1">
          <mxGeometry relative="1" as="geometry">
            <mxPoint x="1175" y="476.82" as="sourcePoint" />
            <mxPoint x="945" y="476.82" as="targetPoint" />
          </mxGeometry>
        </mxCell>
        <mxCell id="pzIHiIn0vkqSjCpnbAeS-52" value="" style="html=1;verticalAlign=bottom;endArrow=open;dashed=1;endSize=8;elbow=horizontal;rounded=0;entryX=0.783;entryY=0.385;entryDx=0;entryDy=0;entryPerimeter=0;" parent="1" edge="1">
          <mxGeometry relative="1" as="geometry">
            <mxPoint x="935" y="508" as="sourcePoint" />
            <mxPoint x="705" y="508" as="targetPoint" />
          </mxGeometry>
        </mxCell>
        <mxCell id="pzIHiIn0vkqSjCpnbAeS-53" value="" style="html=1;verticalAlign=bottom;endArrow=open;dashed=1;endSize=8;elbow=horizontal;rounded=0;entryX=0.783;entryY=0.385;entryDx=0;entryDy=0;entryPerimeter=0;exitX=0.5;exitY=0.709;exitDx=0;exitDy=0;exitPerimeter=0;" parent="1" source="pzIHiIn0vkqSjCpnbAeS-13" edge="1">
          <mxGeometry relative="1" as="geometry">
            <mxPoint x="690" y="540" as="sourcePoint" />
            <mxPoint x="460" y="540" as="targetPoint" />
          </mxGeometry>
        </mxCell>
        <mxCell id="pzIHiIn0vkqSjCpnbAeS-54" value="" style="html=1;verticalAlign=bottom;endArrow=open;dashed=1;endSize=8;elbow=horizontal;rounded=0;entryX=0.783;entryY=0.385;entryDx=0;entryDy=0;entryPerimeter=0;" parent="1" edge="1">
          <mxGeometry relative="1" as="geometry">
            <mxPoint x="449.5" y="570" as="sourcePoint" />
            <mxPoint x="224.5" y="570" as="targetPoint" />
          </mxGeometry>
        </mxCell>
        <mxCell id="pzIHiIn0vkqSjCpnbAeS-55" value="" style="html=1;verticalAlign=bottom;endArrow=open;dashed=1;endSize=8;elbow=horizontal;rounded=0;" parent="1" edge="1">
          <mxGeometry relative="1" as="geometry">
            <mxPoint y="110" as="sourcePoint" />
            <mxPoint y="800" as="targetPoint" />
          </mxGeometry>
        </mxCell>
        <mxCell id="pzIHiIn0vkqSjCpnbAeS-56" value="" style="html=1;verticalAlign=bottom;endArrow=open;dashed=1;endSize=8;elbow=horizontal;rounded=0;entryX=0.783;entryY=0.385;entryDx=0;entryDy=0;entryPerimeter=0;" parent="1" edge="1">
          <mxGeometry relative="1" as="geometry">
            <mxPoint x="210" y="700" as="sourcePoint" />
            <mxPoint y="700" as="targetPoint" />
          </mxGeometry>
        </mxCell>
        <mxCell id="pzIHiIn0vkqSjCpnbAeS-57" value="11.2 Display message create" style="text;html=1;strokeColor=none;fillColor=none;align=center;verticalAlign=middle;whiteSpace=wrap;rounded=0;" parent="1" vertex="1">
          <mxGeometry x="20" y="670" width="170" height="30" as="geometry" />
        </mxCell>
        <mxCell id="pzIHiIn0vkqSjCpnbAeS-58" value="" style="endArrow=none;dashed=1;html=1;rounded=0;entryX=0.001;entryY=0.501;entryDx=0;entryDy=0;entryPerimeter=0;strokeWidth=2;" parent="1" edge="1">
          <mxGeometry width="50" height="50" relative="1" as="geometry">
            <mxPoint x="1290" y="441.2877697841725" as="sourcePoint" />
            <mxPoint x="-58.65000000000009" y="451.40999999999985" as="targetPoint" />
          </mxGeometry>
        </mxCell>
        <mxCell id="11CzAwBJRxjeMd_uXZJc-1" value="3 . saveAccount(account)" style="text;html=1;strokeColor=none;fillColor=none;align=center;verticalAlign=middle;whiteSpace=wrap;rounded=0;" parent="1" vertex="1">
          <mxGeometry x="500" y="180" width="160" height="30" as="geometry" />
        </mxCell>
        <mxCell id="11CzAwBJRxjeMd_uXZJc-2" value="5 .saveAccount(account)" style="text;html=1;strokeColor=none;fillColor=none;align=center;verticalAlign=middle;whiteSpace=wrap;rounded=0;" parent="1" vertex="1">
          <mxGeometry x="730" y="360" width="160" height="30" as="geometry" />
        </mxCell>
        <mxCell id="11CzAwBJRxjeMd_uXZJc-3" value="4.1 return not found message" style="text;html=1;strokeColor=none;fillColor=none;align=center;verticalAlign=middle;whiteSpace=wrap;rounded=0;" parent="1" vertex="1">
          <mxGeometry x="495" y="310" width="160" height="30" as="geometry" />
        </mxCell>
        <mxCell id="F1omoRpDw4ENrALESoTA-1" value="" style="html=1;verticalAlign=bottom;endArrow=open;dashed=1;endSize=8;elbow=horizontal;rounded=0;" parent="1" edge="1">
          <mxGeometry relative="1" as="geometry">
            <mxPoint x="447" y="374.58000000000004" as="sourcePoint" />
            <mxPoint x="227" y="374.29" as="targetPoint" />
          </mxGeometry>
        </mxCell>
        <mxCell id="sqadk4VmBXJLisvXwxH3-1" value="4.2 return not found message" style="text;html=1;strokeColor=none;fillColor=none;align=center;verticalAlign=middle;whiteSpace=wrap;rounded=0;" parent="1" vertex="1">
          <mxGeometry x="257" y="330" width="160" height="30" as="geometry" />
        </mxCell>
        <mxCell id="LqPudS8FmthE19IsN8Bg-1" value="[id not found]" style="text;html=1;strokeColor=none;fillColor=none;align=center;verticalAlign=middle;whiteSpace=wrap;rounded=0;" parent="1" vertex="1">
          <mxGeometry y="330" width="160" height="30" as="geometry" />
        </mxCell>
        <mxCell id="LqPudS8FmthE19IsN8Bg-2" value="[id found]" style="text;html=1;strokeColor=none;fillColor=none;align=center;verticalAlign=middle;whiteSpace=wrap;rounded=0;" parent="1" vertex="1">
          <mxGeometry y="520" width="160" height="30" as="geometry" />
        </mxCell>
        <mxCell id="6hqRJWpmA8yc5q9J2oQH-1" value="9. Return result" style="text;html=1;strokeColor=none;fillColor=none;align=center;verticalAlign=middle;whiteSpace=wrap;rounded=0;" parent="1" vertex="1">
          <mxGeometry x="495" y="500" width="170" height="30" as="geometry" />
        </mxCell>
        <mxCell id="6hqRJWpmA8yc5q9J2oQH-8" value="alt" style="shape=umlFrame;whiteSpace=wrap;html=1;pointerEvents=0;" parent="1" vertex="1">
          <mxGeometry x="-70" y="270" width="1290" height="390" as="geometry" />
        </mxCell>
        <mxCell id="tFPw0Mj0cNTLd-WIEJna-1" value="10 Return invalid view" style="text;html=1;strokeColor=none;fillColor=none;align=center;verticalAlign=middle;whiteSpace=wrap;rounded=0;" vertex="1" parent="1">
          <mxGeometry x="257" y="530" width="170" height="30" as="geometry" />
        </mxCell>
      </root>
    </mxGraphModel>
  </diagram>
</mxfile>
